<svg xmlns="http://www.w3.org/2000/svg" width="684" height="521" viewBox="0 0 684 521"><defs><style>.a{fill:#7cb3f8;}.b{fill:#c1dee2;}.b,.c,.d,.g,.h,.i,.j,.k,.l,.m,.n,.o,.p,.q,.r,.s{fill-rule:evenodd;}.c{fill:#89c5cc;}.d{fill:#69a1ac;}.e{fill:#fff;}.f,.i{fill:#c5cfd6;}.g{fill:#b28b67;}.h{fill:#191847;}.j{fill:#1f28cf;}.k{fill:#2b44ff;}.l{fill:#e4e4e4;}.m{fill:#dde3e9;}.n{fill:#2f3676;}.o{fill:rgba(0,0,0,0.1);}.p{fill:rgba(255,255,255,0.2);}.q{fill:#d4a181;}.r{fill:#ba8b72;}.s{fill:#2026a2;}</style></defs><g transform="translate(-16 -3066)"><circle class="a" cx="226" cy="226" r="226" transform="translate(16 3066)"/><g transform="translate(38 3305)"><g transform="translate(-537 -328)"><g transform="translate(537 328)"><g transform="translate(13)"><path class="b" d="M3.381.208C12.214,21.2,27.229,35.78,35.182,57.6c4.716,12.943,6.682,27.015,6.8,41.427.065,7.828-.071,15.662-.108,23.49-.036,7.634-.243,15.219-.891,22.8-.651,7.625-1.38,15.16-1.7,22.832-.25,5.978-.365,12.932-2.391,18.385-1.611,4.337-5.707,4.972-6.794-.288a42.041,42.041,0,0,1-.461-9.193c.086-3.855.31-7.7.424-11.559.46-15.468-.136-30.938.175-46.412.3-15.119,2.248-30.221.1-45.239-1.776-12.4-6.287-23.051-11.471-33.26C13.874,30.771,8.445,21.187,5.075,10.014A53.841,53.841,0,0,1,3,.03Q3.235-.079,3.381.208Z"/><path class="c" d="M.974,41.617C2.723,42.88,3.7,44.728,4.882,46.55c1.47,2.267,3.2,4.313,4.668,6.581C12.615,57.86,15.308,62.879,18.1,67.8a96.066,96.066,0,0,1,11.326,30.1c2.067,11.2,2.625,22.753,3.492,34.117.92,12.044,1.846,24.176,1.968,36.267.055,5.417.347,11.167-.3,16.546-.4,3.348-1.916,6.2-5.323,6.175-7.236-.058-10.634-8.073-12.053-14.646-2.089-9.68-2.506-19.961-2.175-29.86.4-11.936,2.471-23.692,3.368-35.582.95-12.587.413-24.952-3.914-36.8-2.186-5.989-4.724-11.835-7-17.784a57.491,57.491,0,0,0-3.075-7.494C2.951,46.208,1.142,43.826,0,41Z"/><path class="b" d="M84.334,16.518,85,16a66.168,66.168,0,0,1-2.676,7.341,59.9,59.9,0,0,0-1.729,7.136c-1.255,5.681-2.7,11.234-3.889,16.963-2.346,11.337-1.9,23.55-.364,36.128,1.453,11.881,3.751,23.745,4.845,35.624a163.547,163.547,0,0,1,.432,29.409c-.588,6.383-2.517,14.005-7.771,13.361-2.474-.3-3.764-3.281-4.284-6.642-.835-5.4-1.01-11.074-1.335-16.442-.726-11.982-.871-23.927-1.015-35.786-.136-11.188-.51-22.6.238-33.5a102.688,102.688,0,0,1,6.2-28.758c1.7-4.61,3.317-9.328,5.225-13.721.915-2.107,2.033-3.97,2.949-6.075C82.563,19.339,83.148,17.6,84.334,16.518Z"/><path class="b" d="M3.209,76.3c.957-1.607,3.063,3.692,3.384,4.358q-.2-.5-.409-.993A44.093,44.093,0,0,1,10.9,89.734c1.069,3.585,1.987,7.242,2.99,10.853,1.882,6.774,4.31,13.356,6.016,20.191a65.7,65.7,0,0,1,1.678,20.1,171.682,171.682,0,0,0-.186,21.587c.233,3.418,1.344,6.6,2.1,9.892s1.362,6.632,2.263,9.885c.207-.424.233.993.233,1.1a6.832,6.832,0,0,1-.381,2.265,6.1,6.1,0,0,1-3.841,4.212c-3.456.987-6.666-2.157-7.78-5.477A90.86,90.86,0,0,1,10.755,169.3,70.881,70.881,0,0,1,10.1,155.44c.409-9.179,2.07-18.238,2.519-27.414.489-9.99-1.49-19.377-3.147-29.1A84.98,84.98,0,0,0,6.356,85.134a38.759,38.759,0,0,0-2.309-5.072C3.558,79.112,2.569,77.418,3.209,76.3Z"/><path class="d" d="M31.252,60.7c-.4,11.445-1.08,22.8-2.606,34.127C27.089,106.38,25.3,117.9,23.8,129.463c-1.459,11.259-2.987,22.705-2.784,34.122.15,8.408-1.244,22.634,8.095,26.784,9.459,4.2,11.488-13.746,12.109-19.67,1.19-11.366.8-22.852.227-34.28-.593-11.73-1.583-23.4-2.81-35.085-1.363-12.981-2.432-26.021-3.29-39.038-.425-6.439-.529-12.867-.412-19.308.111-6.077-.12-12.218-2.281-17.988l-.339.246"/><path class="c" d="M80.083,96.955c-1.7,2.478-3.416,4.932-5.022,7.557-2.874,4.7-5.474,9.92-6.256,16.635-1.636,14.053-.324,29.232-.007,43.716.065,2.959-.31,5.83.857,8.647,1.058,2.554,3.035,4.5,4.92,4.49,4.035-.023,3.42-9.9,3.426-14.254.012-7.623-.843-15.324-.769-22.94a159.266,159.266,0,0,1,1.626-22.278,128.363,128.363,0,0,1,4.87-20.718c.3-.9,2.429-7.872.415-6.671"/><path class="d" d="M62.262,22c-2.653,0-2.637,13.226-2.717,14.925-.288,6.131-.221,12.263-.4,18.395-.4,13.381-.889,26.88-2.9,40.107-1.082,7.121-2.337,14.21-3.686,21.276-1.353,7.087-3.17,14.165-4.06,21.342-.855,6.9-.372,13.933-.255,20.866a182.661,182.661,0,0,0,1.242,20.878c.225,1.706.49,3.407.773,5.1a40.444,40.444,0,0,0,.5,4.51c.639,2.151,3.379,2.855,5.224,2.519,4.993-.911,8.181-7.18,9.887-11.76,2.178-5.849,3.334-12.193,4.474-18.356a160.442,160.442,0,0,0,2.4-21.181c.722-14.448-.2-28.911-1.24-43.313-.576-8.009-1.241-15.984-2.258-23.943-1.013-7.926-2.313-15.816-3.16-23.765-.615-5.777-1.221-11.561-1.619-17.36-.1-1.383-.175-10.241-2.2-10.241"/><path class="c" d="M58.941,118.139c-.432-13.886-6.014-74.88-7.284-91.672-.318-4.2-3.375-21.7-3.772-26.467-1.075,1.347-.983,22.309-.972,27.126.013,4.765-.578,9.45-.882,14.189-.31,4.836-7.458,67.285-8.386,71.932-1.846,9.244-3.081,18.729-4.034,28.181-.928,9.211-2.371,18.93-1.129,28.19a28.3,28.3,0,0,0,1.473,6.188c.795,2.116,1.339,4.073,1.977,6.287,1.026,3.566,2.883,6.7,5.736,8.169,5.849,3.019,8.99-3.815,10.583-9.765a159.225,159.225,0,0,0,4.94-29.138c.847-11.041,2.1-22.1,1.75-33.22"/></g><g transform="translate(0 159)"><rect class="e" width="91" height="91" rx="2" transform="translate(10)"/><rect class="f" width="10" height="113" rx="2" transform="translate(0 10)"/><rect class="f" width="10" height="113" rx="2" transform="translate(50 10)"/><rect class="f" width="10" height="113" rx="2" transform="translate(101 10)"/></g></g></g></g><g transform="translate(413 3204)"><g transform="translate(340 24) rotate(180)"><g transform="translate(82)"><g transform="translate(54 -31)"><path class="g" d="M8.262-34.49C3.654-29.081.536-22.453,1.057-15.026c1.5,21.4,31.292,16.693,37.087,5.892s5.106-38.2-2.383-40.13c-2.987-.77-9.349,1.116-15.825,5.019L24-73H0Z"/></g><path class="h" d="M102.776-25.16a5.192,5.192,0,0,1-3.636,3.686,4.791,4.791,0,0,1-1.338.133c-.161-.007-.206-.053-.282.06a1.483,1.483,0,0,0-.08.386,7.28,7.28,0,0,1-.272.9A7.355,7.355,0,0,1,95.4-17.357a8.929,8.929,0,0,1-5.363,2.537,7.819,7.819,0,0,1-3.224-.44,12.767,12.767,0,0,1-1.565-.669c-.153-.077-.648-.452-.8-.427-.169.027-.51.448-.647.553A9.481,9.481,0,0,1,77.872-14c-2.392-.018-4.7-.137-6.69-1.6a13.4,13.4,0,0,1-1.208-1c-.2-.187-.4-.382-.583-.584-.112-.122-.222-.247-.327-.375-.179-.218-.15-.289-.4-.137a4.973,4.973,0,0,1-3.193.718,7.146,7.146,0,0,1-1.928-.544c-.209-.09-.694-.447-.917-.45s-.7.328-.927.412a7.6,7.6,0,0,1-3.853.357,9.948,9.948,0,0,1-3.777-1.485,5.077,5.077,0,0,1-1.4-1.273c-.165-.227-.313-.468-.5-.678-.109-.123-.326-.25-.384-.406a8.3,8.3,0,0,1-1.6.707,3.943,3.943,0,0,1-2.253-.086,8.959,8.959,0,0,1-3.552-2.524,10.088,10.088,0,0,1-1.315-1.766q-.268-.455-.492-.934a3.487,3.487,0,0,0-.216-.487c-.123-.179-.206-.183-.429-.261a6.929,6.929,0,0,1-2.951-1.976,6.8,6.8,0,0,1-1.528-3.24,1.647,1.647,0,0,0-.061-.4c-.056-.052-.284-.029-.37-.039a7.793,7.793,0,0,1-.887-.156,7.326,7.326,0,0,1-1.56-.561,8.148,8.148,0,0,1-3.994-4.769,9.676,9.676,0,0,1,.151-6.624,6.471,6.471,0,0,1,.492-.97c.118-.189.156-.19.079-.388-.085-.221-.241-.436-.342-.651a9.35,9.35,0,0,1-.706-2.215,10.386,10.386,0,0,1-.122-3.828,5.525,5.525,0,0,1,.591-1.68,4.819,4.819,0,0,1,.518-.752c.1-.121.21-.237.323-.348a2.145,2.145,0,0,0,.2-.19c.134-.172.162-.031.093-.284a11.357,11.357,0,0,0-.451-1.048c-.139-.355-.264-.715-.378-1.078a15.91,15.91,0,0,1-.55-2.247,7.056,7.056,0,0,1,.5-4.365,4.366,4.366,0,0,1,1.235-1.47,4.6,4.6,0,0,1,.811-.493c.147-.07.335-.1.4-.242s-.035-.457-.059-.628a10.466,10.466,0,0,1,.123-4.509,6.229,6.229,0,0,1,2.469-3.315,7.682,7.682,0,0,1,7.68-.218A8.063,8.063,0,0,1,45.353-73.9c1.315-1.771,4.022-1.715,5.944-1.21a8.538,8.538,0,0,1,5.424,4.482c1.514-1.843,4.691-1.245,5.741.754a4.782,4.782,0,0,1,.484,1.574c.039.287.014.576.044.861a4.446,4.446,0,0,0,.419,1.066,5.886,5.886,0,0,1,.447,2.125,10.8,10.8,0,0,1-.082,1.141,3.921,3.921,0,0,0,.116,1,4.583,4.583,0,0,0-1.941.243,3.831,3.831,0,0,0-1.5,1.055,8.755,8.755,0,0,0-1.888,3.529c-.854,2.8-.5,6.149,2.308,7.683,1.31.715,5.234.712,6.793.359,1.64-.371,3.5-3.991,3.591-4.331.057-.21.028-.471.221-.611.425-.308,1.126.227,1.44.491a5.676,5.676,0,0,1,1.261,1.678,20.755,20.755,0,0,1,1.73,4.243c.32,1.131.524,2.3.942,3.4a5.2,5.2,0,0,0,2.091,2.7,18.415,18.415,0,0,0,3.6,1.456,8.926,8.926,0,0,1,3.327,1.828,4.592,4.592,0,0,1,.571.636c.131.182.26.532.459.647.31.18.761-.288,1.029-.458a11.892,11.892,0,0,0,3.311-3.286,20.443,20.443,0,0,0,2.2-3.912,11.313,11.313,0,0,1,1.478-3.263c.343-.385,2.894-.618,3.72-.282a4.7,4.7,0,0,1,2.029,1.756,2.73,2.73,0,0,1,.231,1.788c-.072.361-.217.7-.3,1.052a3.27,3.27,0,0,1-.273.851,2.1,2.1,0,0,1-1.309,1.043,6.157,6.157,0,0,1,1.414,1.917,8.238,8.238,0,0,1,.732,2.5,3.036,3.036,0,0,1-.4,1.946,5.124,5.124,0,0,1-1.662,1.379,10.789,10.789,0,0,1,2.313,2.519A7.862,7.862,0,0,1,102.776-25.16Z"/></g><g transform="translate(0 -187)"><g transform="translate(10 -42)"><path class="i" d="M59,0H174a16,16,0,0,0,16-16v-92a16,16,0,0,0-16-16H59a16,16,0,0,0-16,16v92A16,16,0,0,0,59,0ZM75-28a4,4,0,0,1-4-4V-92a4,4,0,0,1,4-4h83a4,4,0,0,1,4,4v60a4,4,0,0,1-4,4Z"/></g><path class="g" d="M271.509-162.66c-12.813,28.358-22.079,53.052-25.8,66.08-6.368,22.308-11.213,41.937-12.438,49.267-2.92,17.481,22.462,18.5,25.817,9.811,5.078-13.149,13.943-56.351,24.6-121.605Zm-148.621,89c11.756,4.647,52.924,19.189,72.779,23.3,5.706,1.182,11.236,2.28,16.435,3.273,15.454,2.95,23.461-24.929,8.577-27.071C183.612-79.494,131.063-85,126.566-85.621,120.263-86.488,115.5-76.584,122.888-73.663Z"/><path class="j" d="M221.587-39.416,158-7.047V0h7.562q92.277-23.514,94.307-30.138c.014-.048.028-.1.04-.143.031-.041.061-.082.091-.123,12.191-16.767,19.493-98.624,21.889-104.753l-23.361-3.485C249.591-105.5,221-82.418,221.759-42.729A13.029,13.029,0,0,0,221.587-39.416Z"/><path class="k" d="M163.283-58.64c-5.818,1.165-11.176,2.2-15.76,3.008C117.909-50.438,109.274-34.586,114.38,0h54.562c8.913-2.56,55.232-21.985,79.265-32.316,15.906-6.838,10.892-31.488,1.884-37.9a.88.88,0,0,0-.5-.781C201.137-91.083,162.8-80.545,150-83.912l-5.923,18.684Z"/><g transform="matrix(0.438, -0.899, 0.899, 0.438, 148.565, -57.151)"><path class="l" d="M2.678-25.4A21.472,21.472,0,0,1,1-32.106,50.176,50.176,0,0,1,1.9-40H58.3q2.2,7.268-2.538,7.848t-7.87,1.046L21.68-19.419a1,1,0,0,1-1.32-.506l-.011-.026-1.685-4.088a17.983,17.983,0,0,0-7.126-2.046,16.139,16.139,0,0,0-6.152,1.8h0a2,2,0,0,1-2.652-.985Q2.7-25.335,2.678-25.4Z"/></g><g transform="translate(263 -132)"><path class="l" d="M2.678-25.4A21.472,21.472,0,0,1,1-32.106,50.177,50.177,0,0,1,1.9-40H58.3q2.2,7.268-2.538,7.848T47.9-31.106L21.68-19.419a1,1,0,0,1-1.32-.506l-.011-.026-1.685-4.088a17.983,17.983,0,0,0-7.127-2.046,16.139,16.139,0,0,0-6.152,1.8h0a2,2,0,0,1-2.652-.985Q2.7-25.335,2.678-25.4Z"/></g></g><g transform="translate(22 -82)"><path class="g" d="M194.044-89.122l28.328-27.636A85.855,85.855,0,0,0,242.633-128.4c1.184-1.428,2.472-4.164-3.1-2.94s-11.484,2.262-12.531.45,2.038-4.587.1-6.958q-1.935-2.37-13.014,15.082L184.636-105.4ZM68.308-93.02l20.9-.082q-19.355-62.481-20.9-66.3c-2.314-5.734,2.583-14.468,4.677-19.161-6.82-3.052-6.093,8.25-14.7,4.248-7.853-3.654-13.826-10.273-22.9-4.675-1.115.688-2.338,3.279.616,5.3,7.358,5.045,17.961,13.875,19.393,16.782Q58.328-150.964,68.308-93.02Z"/><path class="h" d="M122.018-9.232,130.5-7q27.108-53.627,86.515-94.194l-24.957-36.37C151.338-97.685,124.67-55.2,122.018-9.232Z" transform="translate(6.945 14.5) rotate(-5)"/><path class="m" d="M90-114h77Q140.241-48.938,140.241-3.461L117.014,0C98.76-29.358,93.6-65.5,90-114Z"/><path class="n" d="M116.522-.016l.01.016h1.516q2.721-.094,8.29-.338l5.612-16.039q.891-29.333,10.4-118.229H91.876q.2-6.14.655-12.394H55Q63.421-52,116.5,0Z"/><path class="o" d="M95.21-82.233Q97.365-120.505,106-135H91.889A263.844,263.844,0,0,0,95.21-82.233Z"/><path class="p" d="M103.111-104,128-92.429V-104Z"/></g></g></g><g transform="translate(116.397 3115.792)"><g transform="translate(24 10)"><g transform="matrix(0.966, 0.259, -0.259, 0.966, 138.003, 0.172)"><g transform="translate(56.316 32.33)"><path class="q" d="M8.617,35.97C3.811,30.329.559,23.416,1.1,15.67,2.668-6.648,33.736-1.739,39.779,9.526S45.1,49.363,37.294,51.377c-3.115.8-9.75-1.164-16.5-5.234l4.239,29.989H0Z"/></g><path class="h" d="M73.6,66.73c-3.1,5.958-7.4,10.444-11.685,10.444-8.146,0-13.938-10.891-13.938-22.6q0-.617.024-1.226C39.381,59.262,32.74,70.917,21.338,70.917c-15.511,0-21.672-31.287,0-31.287,14.739,0,21.988,2.149,28.236,5.327a20.3,20.3,0,0,1,5.409-8.435,8.409,8.409,0,0,1,2.493-1.769,11.556,11.556,0,0,1,2.071-.888A51.96,51.96,0,0,1,74.87,31.291c1.138-.04,2.256-.051,3.347-.037A10.429,10.429,0,1,1,89.211,41.7a52.636,52.636,0,0,1-11.665,1.983,21.745,21.745,0,0,1,.672,5.595,31.631,31.631,0,0,1-.582,5.818,4.873,4.873,0,0,0-3.59-1.909,6.254,6.254,0,0,0-6.257,6.257C67.788,63.535,70.149,66.493,73.6,66.73Z"/></g><g transform="translate(0 211.707)"><path class="r" d="M133.491,0l38.2,131.641,17.968,98.839H207.7L189.693,0Z"/><path class="q" d="M116.322,0c2.666,68.387,1.615,105.687,1.018,111.9s-3.984,47.826-27.063,120.666h18.758c30.565-69.878,41.235-111.49,44.74-120.666S167.634,65.425,182.75,0Z"/><path class="d" d="M132.671,0q14.905,67.947,51.56,216.922h26.378C212.557,114.983,204.269,47.89,189.916,0Z"/><path class="c" d="M116.189,0c2.611,68.387-4.155,135.761-25.112,217.987H119.22C149.842,149.153,171.789,82.111,186.788,0Z"/><g transform="translate(87.603 207.536)"><path class="h" d="M0,38.587,1.035,21.9q9.09,2.658,22.77-2.086Q38.514,30.234,60.84,34.044a2.086,2.086,0,0,1,1.705,2.407,2.115,2.115,0,0,1-.049.218l-1.431,5.046H2.07Z"/></g><g transform="translate(185.635 207.536)"><path class="h" d="M0,38.587,1.035,21.9q9.09,2.658,22.77-2.086Q38.514,30.234,60.84,34.044a2.086,2.086,0,0,1,1.705,2.407,2.115,2.115,0,0,1-.049.218l-1.431,5.046H2.07Z"/></g></g><g transform="translate(52.915 80.494) rotate(10)"><path class="q" d="M165.443,44.532l36.2-19.826A89.513,89.513,0,0,1,219.435,8.051c1.785-.745,4.907-1.2,1.987,3.986S215.665,22.8,217.152,24.4s5.2-.634,6.971,2.019q1.774,2.653-19.01,8.38l-26.3,24.083Zm56.694,16.728,15.9-8.735q3.347-12.734,8-12.814c2.384-1.109-1.767,9.618,2.751,8.688s15.548-9.133,17.448-7.467c2.811,2.464.3,10.029-2.649,13.793-5.52,7.034-10.091,9.439-21.388,12.589q-8.859,2.47-19.158,9.9Z"/><path class="s" d="M148.986,36.241A88.943,88.943,0,0,0,198.258,29.6l4.526,16.714c-14.222,10.251-33.092,17.535-48.135,14.718C142.793,58.815,138.988,43.447,148.986,36.241Z" transform="translate(-5.007 27.627) rotate(-9)"/><path class="j" d="M164.886,65.453q20.191,5.036,67.717-11.876,11.789,24.388,10.9,34.774c-27.18,14.2-50.476,20.528-69.669,20.946.61,11.388-.776,22.224-5.433,32.126-9.573,20.355-65.628,1.5-84.475,5.214C72.122,108.306,94.943,92.728,94.961,68.2,94.981,41.343,116.548,0,119.721,0h28.937C150.255,20.513,158.291,43.119,164.886,65.453Z"/></g></g></g></g></svg>