<svg xmlns="http://www.w3.org/2000/svg" xmlns:xlink="http://www.w3.org/1999/xlink" width="396.676" height="455.5" viewBox="0 0 396.676 455.5"><defs><style>.a{opacity:0.52;}.b,.h,.j{fill:none;}.b,.g{stroke:#7cb3f8;}.c{fill:#fff;}.d,.e{fill:#006fff;}.d{opacity:0.1;}.e{font-size:30px;font-family:MyanmarText, Myanmar Text;}.f{fill:#2c59a8;font-size:12px;font-family:SegoeUI-Semibold, Segoe UI;font-weight:600;}.g{fill:#deecff;}.h{stroke:#fff;}.i{stroke:none;}.k{filter:url(#a);}</style><filter id="a" x="42.5" y="27.5" width="315" height="428" filterUnits="userSpaceOnUse"><feOffset dy="5" input="SourceAlpha"/><feGaussianBlur stdDeviation="5" result="b"/><feFlood flood-color="#7cb3f8"/><feComposite operator="in" in2="b"/><feComposite in="SourceGraphic"/></filter></defs><g transform="translate(-35.5 -2467.5)"><g class="a" transform="translate(-82 2392)"><g transform="translate(117.5 86.056)"><line class="b" y2="9.048" transform="translate(4.524 0)"/><line class="b" y2="9.048" transform="translate(9.048 4.524) rotate(90)"/></g><g transform="translate(128.056 86.056)"><line class="b" y2="9.048" transform="translate(4.524 0)"/><line class="b" y2="9.048" transform="translate(9.048 4.524) rotate(90)"/></g><g transform="translate(138.613 86.056)"><line class="b" y2="9.048" transform="translate(4.524 0)"/><line class="b" y2="9.048" transform="translate(9.048 4.524) rotate(90)"/></g><g transform="translate(149.169 86.056)"><line class="b" y2="9.048" transform="translate(4.524 0)"/><line class="b" y2="9.048" transform="translate(9.048 4.524) rotate(90)"/></g><g transform="translate(159.726 86.056)"><line class="b" y2="9.048" transform="translate(4.524 0)"/><line class="b" y2="9.048" transform="translate(9.048 4.524) rotate(90)"/></g><g transform="translate(170.282 86.056)"><line class="b" y2="9.048" transform="translate(4.524 0)"/><line class="b" y2="9.048" transform="translate(9.048 4.524) rotate(90)"/></g><g transform="translate(180.839 86.056)"><line class="b" y2="9.048" transform="translate(4.524 0)"/><line class="b" y2="9.048" transform="translate(9.048 4.524) rotate(90)"/></g><g transform="translate(191.395 86.056)"><line class="b" y2="9.048" transform="translate(4.524 0)"/><line class="b" y2="9.048" transform="translate(9.048 4.524) rotate(90)"/></g><g transform="translate(117.5 75.5)"><line class="b" y2="9.048" transform="translate(4.524)"/><line class="b" y2="9.048" transform="translate(9.048 4.524) rotate(90)"/></g><g transform="translate(128.056 75.5)"><line class="b" y2="9.048" transform="translate(4.524)"/><line class="b" y2="9.048" transform="translate(9.048 4.524) rotate(90)"/></g><g transform="translate(138.613 75.5)"><line class="b" y2="9.048" transform="translate(4.524)"/><line class="b" y2="9.048" transform="translate(9.048 4.524) rotate(90)"/></g><g transform="translate(149.169 75.5)"><line class="b" y2="9.048" transform="translate(4.524)"/><line class="b" y2="9.048" transform="translate(9.048 4.524) rotate(90)"/></g><g transform="translate(159.726 75.5)"><line class="b" y2="9.048" transform="translate(4.524)"/><line class="b" y2="9.048" transform="translate(9.048 4.524) rotate(90)"/></g><g transform="translate(170.282 75.5)"><line class="b" y2="9.048" transform="translate(4.524)"/><line class="b" y2="9.048" transform="translate(9.048 4.524) rotate(90)"/></g><g transform="translate(180.839 75.5)"><line class="b" y2="9.048" transform="translate(4.524)"/><line class="b" y2="9.048" transform="translate(9.048 4.524) rotate(90)"/></g><g transform="translate(191.395 75.5)"><line class="b" y2="9.048" transform="translate(4.524)"/><line class="b" y2="9.048" transform="translate(9.048 4.524) rotate(90)"/></g><g transform="translate(117.5 107.169)"><line class="b" y2="9.048" transform="translate(4.524)"/><line class="b" y2="9.048" transform="translate(9.048 4.524) rotate(90)"/></g><g transform="translate(128.056 107.169)"><line class="b" y2="9.048" transform="translate(4.524)"/><line class="b" y2="9.048" transform="translate(9.048 4.524) rotate(90)"/></g><g transform="translate(138.613 107.169)"><line class="b" y2="9.048" transform="translate(4.524)"/><line class="b" y2="9.048" transform="translate(9.048 4.524) rotate(90)"/></g><g transform="translate(149.169 107.169)"><line class="b" y2="9.048" transform="translate(4.524)"/><line class="b" y2="9.048" transform="translate(9.048 4.524) rotate(90)"/></g><g transform="translate(159.726 107.169)"><line class="b" y2="9.048" transform="translate(4.524)"/><line class="b" y2="9.048" transform="translate(9.048 4.524) rotate(90)"/></g><g transform="translate(170.282 107.169)"><line class="b" y2="9.048" transform="translate(4.524)"/><line class="b" y2="9.048" transform="translate(9.048 4.524) rotate(90)"/></g><g transform="translate(180.839 107.169)"><line class="b" y2="9.048" transform="translate(4.524)"/><line class="b" y2="9.048" transform="translate(9.048 4.524) rotate(90)"/></g><g transform="translate(191.395 107.169)"><line class="b" y2="9.048" transform="translate(4.524)"/><line class="b" y2="9.048" transform="translate(9.048 4.524) rotate(90)"/></g><g transform="translate(117.5 96.613)"><line class="b" y2="9.048" transform="translate(4.524)"/><line class="b" y2="9.048" transform="translate(9.048 4.524) rotate(90)"/></g><g transform="translate(128.056 96.613)"><line class="b" y2="9.048" transform="translate(4.524)"/><line class="b" y2="9.048" transform="translate(9.048 4.524) rotate(90)"/></g><g transform="translate(138.613 96.613)"><line class="b" y2="9.048" transform="translate(4.524)"/><line class="b" y2="9.048" transform="translate(9.048 4.524) rotate(90)"/></g><g transform="translate(149.169 96.613)"><line class="b" y2="9.048" transform="translate(4.524)"/><line class="b" y2="9.048" transform="translate(9.048 4.524) rotate(90)"/></g><g transform="translate(159.726 96.613)"><line class="b" y2="9.048" transform="translate(4.524)"/><line class="b" y2="9.048" transform="translate(9.048 4.524) rotate(90)"/></g><g transform="translate(170.282 96.613)"><line class="b" y2="9.048" transform="translate(4.524)"/><line class="b" y2="9.048" transform="translate(9.048 4.524) rotate(90)"/></g><g transform="translate(180.839 96.613)"><line class="b" y2="9.048" transform="translate(4.524)"/><line class="b" y2="9.048" transform="translate(9.048 4.524) rotate(90)"/></g><g transform="translate(191.395 96.613)"><line class="b" y2="9.048" transform="translate(4.524)"/><line class="b" y2="9.048" transform="translate(9.048 4.524) rotate(90)"/></g><g transform="translate(117.5 128.282)"><line class="b" y2="9.048" transform="translate(4.524)"/><line class="b" y2="9.048" transform="translate(9.048 4.524) rotate(90)"/></g><g transform="translate(128.056 128.282)"><line class="b" y2="9.048" transform="translate(4.524)"/><line class="b" y2="9.048" transform="translate(9.048 4.524) rotate(90)"/></g><g transform="translate(138.613 128.282)"><line class="b" y2="9.048" transform="translate(4.524)"/><line class="b" y2="9.048" transform="translate(9.048 4.524) rotate(90)"/></g><g transform="translate(149.169 128.282)"><line class="b" y2="9.048" transform="translate(4.524)"/><line class="b" y2="9.048" transform="translate(9.048 4.524) rotate(90)"/></g><g transform="translate(159.726 128.282)"><line class="b" y2="9.048" transform="translate(4.524)"/><line class="b" y2="9.048" transform="translate(9.048 4.524) rotate(90)"/></g><g transform="translate(170.282 128.282)"><line class="b" y2="9.048" transform="translate(4.524)"/><line class="b" y2="9.048" transform="translate(9.048 4.524) rotate(90)"/></g><g transform="translate(180.839 128.282)"><line class="b" y2="9.048" transform="translate(4.524)"/><line class="b" y2="9.048" transform="translate(9.048 4.524) rotate(90)"/></g><g transform="translate(191.395 128.282)"><line class="b" y2="9.048" transform="translate(4.524)"/><line class="b" y2="9.048" transform="translate(9.048 4.524) rotate(90)"/></g><g transform="translate(117.5 117.726)"><line class="b" y2="9.048" transform="translate(4.524)"/><line class="b" y2="9.048" transform="translate(9.048 4.524) rotate(90)"/></g><g transform="translate(128.056 117.726)"><line class="b" y2="9.048" transform="translate(4.524)"/><line class="b" y2="9.048" transform="translate(9.048 4.524) rotate(90)"/></g><g transform="translate(138.613 117.726)"><line class="b" y2="9.048" transform="translate(4.524)"/><line class="b" y2="9.048" transform="translate(9.048 4.524) rotate(90)"/></g><g transform="translate(149.169 117.726)"><line class="b" y2="9.048" transform="translate(4.524)"/><line class="b" y2="9.048" transform="translate(9.048 4.524) rotate(90)"/></g><g transform="translate(159.726 117.726)"><line class="b" y2="9.048" transform="translate(4.524)"/><line class="b" y2="9.048" transform="translate(9.048 4.524) rotate(90)"/></g><g transform="translate(170.282 117.726)"><line class="b" y2="9.048" transform="translate(4.524)"/><line class="b" y2="9.048" transform="translate(9.048 4.524) rotate(90)"/></g><g transform="translate(180.839 117.726)"><line class="b" y2="9.048" transform="translate(4.524)"/><line class="b" y2="9.048" transform="translate(9.048 4.524) rotate(90)"/></g><g transform="translate(191.395 117.726)"><line class="b" y2="9.048" transform="translate(4.524)"/><line class="b" y2="9.048" transform="translate(9.048 4.524) rotate(90)"/></g><g transform="translate(117.5 149.395)"><line class="b" y2="9.048" transform="translate(4.524)"/><line class="b" y2="9.048" transform="translate(9.048 4.524) rotate(90)"/></g><g transform="translate(128.056 149.395)"><line class="b" y2="9.048" transform="translate(4.524)"/><line class="b" y2="9.048" transform="translate(9.048 4.524) rotate(90)"/></g><g transform="translate(138.613 149.395)"><line class="b" y2="9.048" transform="translate(4.524)"/><line class="b" y2="9.048" transform="translate(9.048 4.524) rotate(90)"/></g><g transform="translate(149.169 149.395)"><line class="b" y2="9.048" transform="translate(4.524)"/><line class="b" y2="9.048" transform="translate(9.048 4.524) rotate(90)"/></g><g transform="translate(159.726 149.395)"><line class="b" y2="9.048" transform="translate(4.524)"/><line class="b" y2="9.048" transform="translate(9.048 4.524) rotate(90)"/></g><g transform="translate(170.282 149.395)"><line class="b" y2="9.048" transform="translate(4.524)"/><line class="b" y2="9.048" transform="translate(9.048 4.524) rotate(90)"/></g><g transform="translate(180.839 149.395)"><line class="b" y2="9.048" transform="translate(4.524)"/><line class="b" y2="9.048" transform="translate(9.048 4.524) rotate(90)"/></g><g transform="translate(191.395 149.395)"><line class="b" y2="9.048" transform="translate(4.524)"/><line class="b" y2="9.048" transform="translate(9.048 4.524) rotate(90)"/></g><g transform="translate(117.5 138.839)"><line class="b" y2="9.048" transform="translate(4.524 0)"/><line class="b" y2="9.048" transform="translate(9.048 4.524) rotate(90)"/></g><g transform="translate(128.056 138.839)"><line class="b" y2="9.048" transform="translate(4.524 0)"/><line class="b" y2="9.048" transform="translate(9.048 4.524) rotate(90)"/></g><g transform="translate(138.613 138.839)"><line class="b" y2="9.048" transform="translate(4.524 0)"/><line class="b" y2="9.048" transform="translate(9.048 4.524) rotate(90)"/></g><g transform="translate(149.169 138.839)"><line class="b" y2="9.048" transform="translate(4.524 0)"/><line class="b" y2="9.048" transform="translate(9.048 4.524) rotate(90)"/></g><g transform="translate(159.726 138.839)"><line class="b" y2="9.048" transform="translate(4.524 0)"/><line class="b" y2="9.048" transform="translate(9.048 4.524) rotate(90)"/></g><g transform="translate(170.282 138.839)"><line class="b" y2="9.048" transform="translate(4.524 0)"/><line class="b" y2="9.048" transform="translate(9.048 4.524) rotate(90)"/></g><g transform="translate(180.839 138.839)"><line class="b" y2="9.048" transform="translate(4.524 0)"/><line class="b" y2="9.048" transform="translate(9.048 4.524) rotate(90)"/></g><g transform="translate(191.395 138.839)"><line class="b" y2="9.048" transform="translate(4.524 0)"/><line class="b" y2="9.048" transform="translate(9.048 4.524) rotate(90)"/></g><g transform="translate(211 75.5) rotate(90)"><line class="b" y2="9.048" transform="translate(4.524)"/><line class="b" y2="9.048" transform="translate(9.048 4.524) rotate(90)"/></g><g transform="translate(211 86.056) rotate(90)"><line class="b" y2="9.048" transform="translate(4.524)"/><line class="b" y2="9.048" transform="translate(9.048 4.524) rotate(90)"/></g><g transform="translate(211 96.613) rotate(90)"><line class="b" y2="9.048" transform="translate(4.524)"/><line class="b" y2="9.048" transform="translate(9.048 4.524) rotate(90)"/></g><g transform="translate(211 107.169) rotate(90)"><line class="b" y2="9.048" transform="translate(4.524)"/><line class="b" y2="9.048" transform="translate(9.048 4.524) rotate(90)"/></g><g transform="translate(211 117.726) rotate(90)"><line class="b" y2="9.048" transform="translate(4.524)"/><line class="b" y2="9.048" transform="translate(9.048 4.524) rotate(90)"/></g><g transform="translate(161.316 128.282) rotate(90)"><line class="b" y2="9.048" transform="translate(4.524 -49.684)"/><line class="b" y2="9.048" transform="translate(9.048 -45.164) rotate(90)"/></g><g transform="translate(211 138.839) rotate(90)"><line class="b" y2="9.048" transform="translate(4.524)"/><line class="b" y2="9.048" transform="translate(9.048 4.524) rotate(90)"/></g><g transform="translate(211 149.395) rotate(90)"><line class="b" y2="9.048" transform="translate(4.524)"/><line class="b" y2="9.048" transform="translate(9.048 4.524) rotate(90)"/></g><g transform="translate(221.556 75.5) rotate(90)"><line class="b" y2="9.048" transform="translate(4.524)"/><line class="b" y2="9.048" transform="translate(9.048 4.524) rotate(90)"/></g><g transform="translate(221.556 86.056) rotate(90)"><line class="b" y2="9.048" transform="translate(4.524)"/><line class="b" y2="9.048" transform="translate(9.048 4.524) rotate(90)"/></g><g transform="translate(221.556 96.613) rotate(90)"><line class="b" y2="9.048" transform="translate(4.524)"/><line class="b" y2="9.048" transform="translate(9.048 4.524) rotate(90)"/></g><g transform="translate(221.556 107.169) rotate(90)"><line class="b" y2="9.048" transform="translate(4.524)"/><line class="b" y2="9.048" transform="translate(9.048 4.524) rotate(90)"/></g><g transform="translate(221.556 117.726) rotate(90)"><line class="b" y2="9.048" transform="translate(4.524)"/><line class="b" y2="9.048" transform="translate(9.048 4.524) rotate(90)"/></g><g transform="translate(221.556 128.282) rotate(90)"><line class="b" y2="9.048" transform="translate(4.524)"/><line class="b" y2="9.048" transform="translate(9.048 4.524) rotate(90)"/></g><g transform="translate(221.556 138.839) rotate(90)"><line class="b" y2="9.048" transform="translate(4.524)"/><line class="b" y2="9.048" transform="translate(9.048 4.524) rotate(90)"/></g><g transform="translate(221.556 149.395) rotate(90)"><line class="b" y2="9.048" transform="translate(4.524)"/><line class="b" y2="9.048" transform="translate(9.048 4.524) rotate(90)"/></g><g transform="translate(117.5 159.952)"><line class="b" y2="9.048" transform="translate(4.524)"/><line class="b" y2="9.048" transform="translate(9.048 4.524) rotate(90)"/></g><g transform="translate(128.056 159.952)"><line class="b" y2="9.048" transform="translate(4.524)"/><line class="b" y2="9.048" transform="translate(9.048 4.524) rotate(90)"/></g><g transform="translate(138.613 159.952)"><line class="b" y2="9.048" transform="translate(4.524)"/><line class="b" y2="9.048" transform="translate(9.048 4.524) rotate(90)"/></g><g transform="translate(149.169 159.952)"><line class="b" y2="9.048" transform="translate(4.524)"/><line class="b" y2="9.048" transform="translate(9.048 4.524) rotate(90)"/></g><g transform="translate(159.726 159.952)"><line class="b" y2="9.048" transform="translate(4.524)"/><line class="b" y2="9.048" transform="translate(9.048 4.524) rotate(90)"/></g><g transform="translate(170.282 159.952)"><line class="b" y2="9.048" transform="translate(4.524)"/><line class="b" y2="9.048" transform="translate(9.048 4.524) rotate(90)"/></g><g transform="translate(180.839 159.952)"><line class="b" y2="9.048" transform="translate(4.524)"/><line class="b" y2="9.048" transform="translate(9.048 4.524) rotate(90)"/></g><g transform="translate(191.395 159.952)"><line class="b" y2="9.048" transform="translate(4.524)"/><line class="b" y2="9.048" transform="translate(9.048 4.524) rotate(90)"/></g><g transform="translate(211 159.952) rotate(90)"><line class="b" y2="9.048" transform="translate(4.524)"/><line class="b" y2="9.048" transform="translate(9.048 4.524) rotate(90)"/></g><g transform="translate(221.556 159.952) rotate(90)"><line class="b" y2="9.048" transform="translate(4.524)"/><line class="b" y2="9.048" transform="translate(9.048 4.524) rotate(90)"/></g><g transform="translate(232.113 75.5) rotate(90)"><line class="b" y2="9.048" transform="translate(4.524)"/><line class="b" y2="9.048" transform="translate(9.048 4.524) rotate(90)"/></g><g transform="translate(232.113 86.056) rotate(90)"><line class="b" y2="9.048" transform="translate(4.524)"/><line class="b" y2="9.048" transform="translate(9.048 4.524) rotate(90)"/></g><g transform="translate(232.113 96.613) rotate(90)"><line class="b" y2="9.048" transform="translate(4.524)"/><line class="b" y2="9.048" transform="translate(9.048 4.524) rotate(90)"/></g><g transform="translate(232.113 107.169) rotate(90)"><line class="b" y2="9.048" transform="translate(4.524)"/><line class="b" y2="9.048" transform="translate(9.048 4.524) rotate(90)"/></g><g transform="translate(232.113 117.726) rotate(90)"><line class="b" y2="9.048" transform="translate(4.524)"/><line class="b" y2="9.048" transform="translate(9.048 4.524) rotate(90)"/></g><g transform="translate(232.113 128.282) rotate(90)"><line class="b" y2="9.048" transform="translate(4.524)"/><line class="b" y2="9.048" transform="translate(9.048 4.524) rotate(90)"/></g><g transform="translate(232.113 138.839) rotate(90)"><line class="b" y2="9.048" transform="translate(4.524)"/><line class="b" y2="9.048" transform="translate(9.048 4.524) rotate(90)"/></g><g transform="translate(232.113 149.395) rotate(90)"><line class="b" y2="9.048" transform="translate(4.524)"/><line class="b" y2="9.048" transform="translate(9.048 4.524) rotate(90)"/></g><g transform="translate(232.113 159.952) rotate(90)"><line class="b" y2="9.048" transform="translate(4.524)"/><line class="b" y2="9.048" transform="translate(9.048 4.524) rotate(90)"/></g></g><g transform="translate(-20 2282)"><g class="k" transform="matrix(1, 0, 0, 1, 55.5, 185.5)"><rect class="c" width="285" height="398" rx="25" transform="translate(57.5 37.5)"/></g><rect class="d" width="285" height="150" transform="translate(113 471)"/><text class="e" transform="translate(348 273)"><tspan x="-183.984" y="0">Basic Package</tspan></text><text class="e" transform="translate(288 577)"><tspan x="-64.688" y="0">$100</tspan></text></g><text class="f" transform="translate(140 2568)"><tspan x="35.522" y="13">Most Popular Package</tspan></text><g transform="translate(-42 2267)"><text class="f" transform="translate(176 414)"><tspan x="19.491" y="13">Lorem ipsum dolor sit amet, </tspan></text><text class="f" transform="translate(176 436)"><tspan x="19.491" y="13">Lorem ipsum dolor sit amet, </tspan></text><text class="f" transform="translate(176 392)"><tspan x="19.491" y="13">Lorem ipsum dolor sit amet, </tspan></text><path class="b" d="M150.98,1383.715l3.885,4.392L165,1380.979" transform="translate(13 -984.107)"/><path class="b" d="M150.98,1383.715l3.885,4.392L165,1380.979" transform="translate(13 -962.107)"/><path class="b" d="M150.98,1383.715l3.885,4.392L165,1380.979" transform="translate(13 -940.107)"/></g><g transform="translate(-32 2286)"><g class="g" transform="translate(182 489)"><rect class="i" width="171" height="44" rx="13"/><rect class="j" x="0.5" y="0.5" width="170" height="43" rx="12.5"/></g><text class="f" transform="translate(172 502)"><tspan x="47.479" y="13">More Information</tspan></text></g><g transform="translate(-422 2093)"><path class="h" d="M-19.117,163.641s10.6-10.954,25.687-10.954,14.15,8.216,29.271,10.954,18.3-10.954,31.661-10.954S89.28,163.641,89.28,163.641" transform="translate(764.5 376.501)"/><path class="h" d="M-19.117,163.641s10.6-10.954,25.687-10.954,14.15,8.216,29.271,10.954,18.3-10.954,31.661-10.954S89.28,163.641,89.28,163.641" transform="translate(764.5 366.859)"/><path class="h" d="M-19.117,163.641s10.6-10.954,25.687-10.954,14.15,8.216,29.271,10.954,18.3-10.954,31.661-10.954S89.28,163.641,89.28,163.641" transform="translate(764.5 357.784)"/><path class="h" d="M-19.117,163.641s10.6-10.954,25.687-10.954,14.15,8.216,29.271,10.954,18.3-10.954,31.661-10.954S89.28,163.641,89.28,163.641" transform="translate(764.5 348.142)"/><path class="h" d="M-19.117,163.641s10.6-10.954,25.687-10.954,14.15,8.216,29.271,10.954,18.3-10.954,31.661-10.954S89.28,163.641,89.28,163.641" transform="translate(764.5 338.5)"/></g></g></svg>