<svg xmlns="http://www.w3.org/2000/svg" width="1366.001" height="308.366" viewBox="0 0 1366.001 308.366">
  <g id="Subtraction_3" data-name="Subtraction 3" transform="translate(5287 -203.043)" fill="#7cb3f8" opacity="0.2">
    <path d="M -4437.6572265625 510.9097900390625 L -4437.66552734375 510.9097900390625 L -4437.6787109375 510.9097900390625 C -4463.1767578125 510.9084777832031 -4489.85498046875 509.9696350097656 -4516.97216796875 508.1192932128906 C -4543.4287109375 506.3153076171875 -4569.5068359375 503.7008056640625 -4594.48291015625 500.3484802246094 C -4619.56201171875 496.98095703125 -4642.62109375 492.9911499023438 -4663.01953125 488.4896240234375 C -4684.08837890625 483.84130859375 -4701.70458984375 478.7801513671875 -4715.37890625 473.4469604492188 C -4725.34033203125 469.5629577636719 -4736.67822265625 466.1664733886719 -4749.07666015625 463.3514709472656 C -4760.58935546875 460.7394714355469 -4773.2978515625 458.5656433105469 -4786.8486328125 456.8904724121094 C -4810.72509765625 453.9401245117188 -4837.86328125 452.4443054199219 -4867.51025390625 452.4443054199219 C -4886.0634765625 452.4443054199219 -4905.76611328125 453.0307922363281 -4926.0703125 454.1873168945313 C -4942.3037109375 455.1121520996094 -4958.9560546875 456.4024658203125 -4975.56494140625 458.0221252441406 C -5002.8798828125 460.6865844726563 -5021.138671875 463.3828430175781 -5022.53759765625 463.5916137695313 L -5286.50048828125 437.7890930175781 L -5286.50048828125 228.3410339355469 C -5266.2685546875 225.4691925048828 -5242.11376953125 222.9462585449219 -5211.58837890625 219.7577972412109 L -5211.5751953125 219.7564697265625 L -5211.48095703125 219.7466430664063 L -5211.4697265625 219.7454681396484 L -5211.4609375 219.7440795898438 L -5211.4482421875 219.7427978515625 C -5180.7900390625 216.5421447753906 -5146.04248046875 212.914306640625 -5104.23583984375 207.7814636230469 C -5092.45263671875 206.3348083496094 -5080.560546875 205.2464752197266 -5068.8896484375 204.546630859375 C -5057.79638671875 203.8807983398438 -5046.52734375 203.5431365966797 -5035.39697265625 203.5431365966797 C -5020.96337890625 203.5431365966797 -5006.673828125 204.0826416015625 -4991.71240234375 205.1923065185547 C -4978.3818359375 206.1813049316406 -4964.810546875 207.6051330566406 -4950.22265625 209.5454711914063 C -4923.11962890625 213.1504669189453 -4896.50048828125 218.0486450195313 -4870.75732421875 222.7854766845703 L -4870.7373046875 222.7891387939453 L -4870.724609375 222.7913055419922 L -4870.73095703125 222.7902984619141 L -4869.82568359375 222.9561309814453 C -4817.90869140625 232.5094757080078 -4764.2236328125 242.3883056640625 -4702.021484375 242.3883056640625 C -4690.4326171875 242.3883056640625 -4678.69970703125 242.0398101806641 -4667.1484375 241.3524780273438 C -4567.9716796875 235.4613189697266 -4388.82666015625 221.2048187255859 -4385.70654296875 220.9561767578125 L -4385.63134765625 220.9588012695313 C -4380.62353515625 221.136474609375 -4353.6015625 222.1253051757813 -4313.35302734375 224.1526336669922 C -4273.328125 226.1683044433594 -4212.3134765625 229.6304779052734 -4148.93310546875 234.6764678955078 C -4077.702880859375 240.3454742431641 -4018.038818359375 246.8206329345703 -3971.598388671875 253.9223022460938 C -3952.82958984375 256.7918090820313 -3935.97705078125 259.8112487792969 -3921.49951171875 262.898193359375 L -3921.499755859375 433.2708740234375 C -3934.7353515625 436.6642150878906 -3949.17333984375 439.903076171875 -3964.418212890625 442.8989562988281 C -4005.0888671875 450.8904724121094 -4052.220458984375 457.3656311035156 -4104.50390625 462.1443176269531 C -4128.3779296875 464.3264770507813 -4153.24365234375 466.1376342773438 -4178.41064453125 467.5276489257813 C -4202.37353515625 468.8507995605469 -4226.6904296875 469.7956237792969 -4250.68701171875 470.3359680175781 L -4250.94580078125 470.341796875 L -4251.09033203125 470.5563049316406 C -4253.46044921875 474.0701293945313 -4256.78857421875 477.4214782714844 -4260.98291015625 480.5174560546875 C -4265.06689453125 483.5314636230469 -4270.06884765625 486.3768005371094 -4275.85009765625 488.9743041992188 C -4286.93798828125 493.9573059082031 -4301.20068359375 498.1799621582031 -4318.24169921875 501.5249633789063 C -4334.31298828125 504.6802978515625 -4352.970703125 507.0793151855469 -4373.69677734375 508.6556396484375 C -4393.35205078125 510.1513061523438 -4414.87158203125 510.9097900390625 -4437.6572265625 510.9097900390625 Z" stroke="none"/>
    <path d="M -4437.6572265625 510.4097900390625 C -4414.88427734375 510.4097900390625 -4393.37744140625 509.6517944335938 -4373.734375 508.156982421875 C -4353.0283203125 506.5823059082031 -4334.39013671875 504.185791015625 -4318.33837890625 501.0343017578125 C -4301.33447265625 497.6966247558594 -4287.1083984375 493.4856262207031 -4276.0546875 488.5181274414063 C -4270.30615234375 485.935302734375 -4265.33544921875 483.1081237792969 -4261.27978515625 480.1152954101563 C -4257.1318359375 477.0533142089844 -4253.8427734375 473.7431335449219 -4251.5048828125 470.2766418457031 L -4251.2158203125 469.8476257324219 L -4250.6982421875 469.8361511230469 C -4226.70751953125 469.2958068847656 -4202.3955078125 468.3511352539063 -4178.4384765625 467.0282897949219 C -4153.27734375 465.6387939453125 -4128.41748046875 463.828125 -4104.54931640625 461.646484375 C -4052.282958984375 456.869140625 -4005.16845703125 450.3966369628906 -3964.5146484375 442.4084777832031 C -3949.422607421875 439.4425964355469 -3935.1240234375 436.2388610839844 -3921.999755859375 432.8828430175781 L -3921.99951171875 263.3028564453125 C -3936.37841796875 260.2473754882813 -3953.0859375 257.2585144042969 -3971.674072265625 254.4164733886719 C -4018.102783203125 247.3166351318359 -4077.75439453125 240.8428039550781 -4148.97265625 235.1748046875 C -4212.34716796875 230.1293029785156 -4273.35693359375 226.6676330566406 -4313.3779296875 224.6519775390625 C -4353.62353515625 222.6248016357422 -4380.6416015625 221.6361389160156 -4385.64892578125 221.4584655761719 L -4385.69580078125 221.4568328857422 C -4389.75244140625 221.7799530029297 -4568.2041015625 235.9760284423828 -4667.11865234375 241.8514709472656 C -4678.68017578125 242.5394744873047 -4690.4228515625 242.8883056640625 -4702.021484375 242.8883056640625 C -4764.26953125 242.8883056640625 -4817.97705078125 233.0053100585938 -4869.91552734375 223.4479675292969 L -4870.8154296875 223.2830963134766 L -4870.81640625 223.2829742431641 L -4870.82080078125 223.2821350097656 L -4870.82568359375 223.2813110351563 L -4870.84814453125 223.2772979736328 C -4896.5849609375 218.5414733886719 -4923.19775390625 213.6444702148438 -4950.28857421875 210.0411376953125 C -4964.86669921875 208.1021423339844 -4978.4287109375 206.6791381835938 -4991.74951171875 205.6909637451172 C -5006.6982421875 204.5821380615234 -5020.9755859375 204.0431365966797 -5035.39697265625 204.0431365966797 C -5046.517578125 204.0431365966797 -5057.7763671875 204.3804779052734 -5068.85986328125 205.0456390380859 C -5080.52001953125 205.7449645996094 -5092.40185546875 206.8323059082031 -5104.1748046875 208.2776336669922 C -5145.98583984375 213.4111328125 -5180.736328125 217.0391387939453 -5211.3974609375 220.2403106689453 L -5211.39794921875 220.2403869628906 L -5211.40625 220.2416381835938 L -5211.4296875 220.2439727783203 L -5211.52294921875 220.2536315917969 L -5211.5361328125 220.2551422119141 C -5241.8408203125 223.42041015625 -5265.86572265625 225.9298095703125 -5286.00048828125 228.7752380371094 L -5286.00048828125 437.3355407714844 L -5022.55029296875 463.0879821777344 C -5020.74658203125 462.8197937011719 -5002.59423828125 460.15625 -4975.61328125 457.5244750976563 C -4958.998046875 455.9041442871094 -4942.3388671875 454.6134643554688 -4926.0986328125 453.6881408691406 C -4905.78515625 452.5309753417969 -4886.0732421875 451.9443054199219 -4867.51025390625 451.9443054199219 C -4837.8427734375 451.9443054199219 -4810.68408203125 453.4414672851563 -4786.78759765625 456.3941345214844 C -4773.2197265625 458.0714721679688 -4760.4951171875 460.248291015625 -4748.96630859375 462.8639831542969 C -4736.54296875 465.6842956542969 -4725.181640625 469.0883178710938 -4715.197265625 472.9811401367188 C -4701.546875 478.3049621582031 -4683.95556640625 483.358642578125 -4662.91162109375 488.00146484375 C -4642.52685546875 492.4999694824219 -4619.48193359375 496.4873046875 -4594.41650390625 499.8528137207031 C -4569.451171875 503.2037963867188 -4543.3837890625 505.817138671875 -4516.9384765625 507.6204833984375 C -4489.83203125 509.469970703125 -4463.16552734375 510.4084777832031 -4437.6787109375 510.4097900390625 L -4437.66552734375 510.4097900390625 L -4437.6572265625 510.4097900390625 M -4437.6572265625 511.4097900390625 L -4437.66552734375 511.4097900390625 L -4437.6787109375 511.4097900390625 C -4463.18896484375 511.4084777832031 -4489.87890625 510.4691467285156 -4517.00634765625 508.6181335449219 C -4543.4716796875 506.8134765625 -4569.56103515625 504.1979675292969 -4594.54931640625 500.8439636230469 C -4619.64208984375 497.4747924804688 -4642.71533203125 493.4824829101563 -4663.126953125 488.9779663085938 C -4684.22119140625 484.323974609375 -4701.8623046875 479.2553100585938 -4715.560546875 473.9128112792969 C -4725.5 470.0374755859375 -4736.81396484375 466.6483154296875 -4749.1875 463.8391418457031 C -4760.6845703125 461.2306518554688 -4773.3759765625 459.059814453125 -4786.91015625 457.3866271972656 C -4810.765625 454.43896484375 -4837.88330078125 452.9443054199219 -4867.51025390625 452.9443054199219 C -4886.0546875 452.9443054199219 -4905.74755859375 453.5304565429688 -4926.0419921875 454.6864624023438 C -4942.2705078125 455.6111450195313 -4958.91650390625 456.9009704589844 -4975.5166015625 458.5198059082031 C -5003.328125 461.2326354980469 -5021.75390625 463.9796447753906 -5022.52490234375 464.0953063964844 L -5287.00048828125 438.2426452636719 L -5287.00048828125 227.9071350097656 C -5266.67236328125 225.0086364746094 -5242.38671875 222.4719696044922 -5211.64013671875 219.2604675292969 L -5211.62744140625 219.2591400146484 L -5211.53271484375 219.2492980957031 L -5211.52392578125 219.2479705810547 L -5211.49951171875 219.2454681396484 C -5180.8408203125 216.0446319580078 -5146.091796875 212.4166412353516 -5104.296875 207.2851409912109 C -5092.50390625 205.8373107910156 -5080.6015625 204.7479705810547 -5068.919921875 204.0474700927734 C -5057.81494140625 203.3809661865234 -5046.5361328125 203.0431365966797 -5035.39697265625 203.0431365966797 C -5020.951171875 203.0431365966797 -5006.64990234375 203.5829772949219 -4991.67529296875 204.6936340332031 C -4978.3359375 205.6833038330078 -4964.75537109375 207.1081390380859 -4950.15673828125 209.0498046875 C -4923.044921875 212.6559753417969 -4896.41748046875 217.5554656982422 -4870.6669921875 222.2938079833984 L -4870.6484375 222.2971343994141 L -4870.640625 222.2984771728516 L -4869.7353515625 222.4643096923828 C -4817.83984375 232.0138092041016 -4764.17822265625 241.8883056640625 -4702.021484375 241.8883056640625 C -4690.44384765625 241.8883056640625 -4678.720703125 241.5401306152344 -4667.17822265625 240.8533020019531 C -4567.63623046875 234.9404754638672 -4387.5263671875 220.5996398925781 -4385.71875 220.4554748535156 L -4385.61376953125 220.4591369628906 C -4380.609375 220.6366424560547 -4353.6044921875 221.6244659423828 -4313.32763671875 223.6533050537109 C -4273.30078125 225.6691436767578 -4212.2822265625 229.1313018798828 -4148.8935546875 234.177978515625 C -4077.650634765625 239.8479766845703 -4017.974609375 246.3246307373047 -3971.52294921875 253.427978515625 C -3952.572509765625 256.3253173828125 -3935.573974609375 259.3754577636719 -3920.99951171875 262.49365234375 L -3920.999755859375 433.6588134765625 C -3934.3515625 437.0906372070313 -3948.92724609375 440.3643188476563 -3964.32177734375 443.3896484375 C -4005.0078125 451.3841247558594 -4052.156494140625 457.86181640625 -4104.45849609375 462.6423034667969 C -4128.34130859375 464.8253173828125 -4153.21337890625 466.6368103027344 -4178.38330078125 468.0267944335938 C -4202.3486328125 469.3501281738281 -4226.67138671875 470.2953186035156 -4250.67578125 470.8358154296875 C -4253.07763671875 474.39697265625 -4256.44580078125 477.7899780273438 -4260.68603515625 480.9197998046875 C -4264.79833984375 483.9546508789063 -4269.8310546875 486.8179626464844 -4275.64501953125 489.4302978515625 C -4286.76806640625 494.4289855957031 -4301.0673828125 498.6632995605469 -4318.1455078125 502.015625 C -4334.23681640625 505.1748046875 -4352.91455078125 507.5764770507813 -4373.65869140625 509.1541442871094 C -4393.32568359375 510.6508178710938 -4414.85791015625 511.4097900390625 -4437.6572265625 511.4097900390625 Z" stroke="none" fill="#65cde8"/>
  </g>
</svg>
