<svg xmlns="http://www.w3.org/2000/svg" width="1366" height="736.958" viewBox="0 0 1366 736.958">
  <path id="Subtraction_5" data-name="Subtraction 5" d="M-6172.5,619.459h-1365V-16.8c22.57-14.143,51.943-25.48,89.132-39.833l0,0,.012,0,.007,0,.056-.019.006,0c30.709-11.853,65.515-25.286,107.194-44.2a190.911,190.911,0,0,1,17.89-7.074,169.213,169.213,0,0,1,17.389-4.859,157.352,157.352,0,0,1,16.92-2.8,152.672,152.672,0,0,1,16.493-.9,156.773,156.773,0,0,1,22.114,1.59,175.1,175.1,0,0,1,21.479,4.494,233.6,233.6,0,0,1,41.434,16.066,433.92,433.92,0,0,1,40.042,22.766c13.241,8.363,26.5,17.381,39.321,26.1l.092.061.027.019.006,0,.868.589c51.958,35.332,105.684,71.866,167.989,71.866a160.771,160.771,0,0,0,17.24-.931,166.358,166.358,0,0,0,17.716-2.9c22.839-5.014,51.872-12.1,86.292-21.07,27.552-7.178,58.525-15.549,92.059-24.882,55.954-15.572,101.132-28.847,103.027-29.4l.013,0c1.2.156,29.81,3.9,72.26,11.8,25.437,4.734,50.884,10.026,75.634,15.732,30.9,7.126,60.757,14.913,88.75,23.146,71.223,20.954,130.863,44.874,177.264,71.1A426.387,426.387,0,0,1-6172.5,92.482V619.458Z" transform="translate(7538 117)" fill="#7cb3f8" stroke="#65cde8" stroke-width="1" opacity="0.2"/>
</svg>
