<svg xmlns="http://www.w3.org/2000/svg" width="1366.001" height="224.959" viewBox="0 0 1366.001 224.959">
  <g id="Subtraction_4" data-name="Subtraction 4" transform="translate(5211 -137)" fill="#7cb3f8" opacity="0.2">
    <path d="M -3845.499755859375 361.4574584960938 L -5210.50048828125 361.4574584960938 L -5210.50048828125 162.2978668212891 C -5190.28173828125 159.4283294677734 -5166.14501953125 156.9067687988281 -5135.64306640625 153.7199554443359 L -5135.62060546875 153.7176208496094 L -5135.5869140625 153.7139587402344 L -5135.5751953125 153.7127990722656 L -5135.48388671875 153.7037963867188 L -5135.470703125 153.7024536132813 L -5135.4599609375 153.7007598876953 L -5135.451171875 153.6998138427734 L -5135.447265625 153.699462890625 L -5135.44482421875 153.6991271972656 L -5135.4423828125 153.6989593505859 L -5135.41845703125 153.6964569091797 C -5104.80859375 150.5011291503906 -5070.11376953125 146.8792877197266 -5028.23583984375 141.7381286621094 C -5016.44580078125 140.2909545898438 -5004.5537109375 139.2026214599609 -4992.8896484375 138.5034637451172 C -4981.78759765625 137.8374633789063 -4970.51904296875 137.4997863769531 -4959.39697265625 137.4997863769531 C -4944.96923828125 137.4997863769531 -4930.6796875 138.0392913818359 -4915.71240234375 139.1491241455078 C -4902.38427734375 140.1381225585938 -4888.81298828125 141.5619659423828 -4874.22265625 143.5022888183594 C -4847.11083984375 147.1086273193359 -4820.49853515625 152.0052947998047 -4794.76220703125 156.7407989501953 L -4794.7734375 156.7388000488281 L -4794.75 156.7436218261719 L -4794.73876953125 156.7459564208984 L -4794.72802734375 156.7475433349609 L -4793.82568359375 156.9129638671875 C -4741.908203125 166.4662933349609 -4688.22265625 176.3451232910156 -4626.021484375 176.3451232910156 C -4614.42236328125 176.3451232910156 -4602.68896484375 175.9966278076172 -4591.1484375 175.3092956542969 C -4492.033203125 169.4219360351563 -4312.90380859375 155.1684112548828 -4309.708984375 154.9130554199219 L -4309.6328125 154.9159545898438 C -4304.5966796875 155.0949554443359 -4277.44921875 156.0896301269531 -4237.35302734375 158.1092987060547 C -4197.353515625 160.1234588623047 -4136.35888671875 163.5841217041016 -4072.93359375 168.6331329345703 C -4001.702392578125 174.3016204833984 -3942.038330078125 180.7769622802734 -3895.5986328125 187.8791198730469 C -3876.814453125 190.7514495849609 -3859.9619140625 193.7706451416016 -3845.49951171875 196.8545227050781 L -3845.499755859375 361.4574584960938 Z" stroke="none"/>
    <path d="M -3845.999755859375 360.9574584960938 L -3845.99951171875 197.2591705322266 C -3860.364013671875 194.2066955566406 -3877.07080078125 191.2181243896484 -3895.674072265625 188.373291015625 C -3942.10205078125 181.2729644775391 -4001.754150390625 174.7991333007813 -4072.97314453125 169.1314544677734 C -4136.392578125 164.0829620361328 -4197.3818359375 160.6226196289063 -4237.3779296875 158.6086273193359 C -4277.470703125 156.5892944335938 -4304.615234375 155.5946197509766 -4309.65185546875 155.4156188964844 L -4309.6982421875 155.4138641357422 C -4313.8076171875 155.7418212890625 -4492.259765625 169.936279296875 -4591.11865234375 175.8082885742188 C -4602.66943359375 176.4962921142578 -4614.412109375 176.8451232910156 -4626.021484375 176.8451232910156 C -4688.2685546875 176.8451232910156 -4741.9765625 166.9621276855469 -4793.91552734375 157.40478515625 L -4794.8095703125 157.2409362792969 L -4794.8291015625 157.23779296875 L -4794.8515625 157.2331237792969 L -4794.86083984375 157.2311248779297 C -4820.587890625 152.4971618652344 -4847.1923828125 147.6021881103516 -4874.28857421875 143.9979553222656 C -4888.869140625 142.0589599609375 -4902.43115234375 140.6359558105469 -4915.74951171875 139.6477966308594 C -4930.7041015625 138.5387878417969 -4944.9814453125 137.9997863769531 -4959.39697265625 137.9997863769531 C -4970.50927734375 137.9997863769531 -4981.76806640625 138.3371276855469 -4992.85986328125 139.0024566650391 C -5004.513671875 139.7011260986328 -5016.39501953125 140.7884521484375 -5028.1748046875 142.2342987060547 C -5070.0576171875 147.3761291503906 -5104.75439453125 150.9981231689453 -5135.36669921875 154.1937866210938 L -5135.39013671875 154.1962890625 L -5135.3955078125 154.1967926025391 L -5135.39599609375 154.1968231201172 L -5135.4091796875 154.1987915039063 L -5135.4345703125 154.2012939453125 L -5135.52392578125 154.2100830078125 L -5135.53369140625 154.2111206054688 L -5135.568359375 154.2147979736328 L -5135.5908203125 154.2171325683594 C -5165.87255859375 157.3809204101563 -5189.87841796875 159.8889312744141 -5210.00048828125 162.7320709228516 L -5210.00048828125 360.9574584960938 L -3845.999755859375 360.9574584960938 M -3844.999755859375 361.9584655761719 L -3844.999755859375 361.9574584960938 L -5211.00048828125 361.9574584960938 L -5211.00048828125 161.8639526367188 C -5190.6845703125 158.9677886962891 -5166.416015625 156.4322967529297 -5135.69189453125 153.2222900390625 L -5135.6728515625 153.2202911376953 L -5135.64013671875 153.216796875 L -5135.62744140625 153.2154541015625 L -5135.53271484375 153.2061309814453 L -5135.52392578125 153.2047882080078 L -5135.49951171875 153.2021331787109 L -5135.494140625 153.2016296386719 C -5104.8798828125 150.0057983398438 -5070.18115234375 146.3837890625 -5028.296875 141.2417907714844 C -5016.498046875 139.7936248779297 -5004.595703125 138.7042999267578 -4992.919921875 138.0042877197266 C -4981.80859375 137.3377990722656 -4970.52978515625 136.9997863769531 -4959.39697265625 136.9997863769531 C -4944.95556640625 136.9997863769531 -4930.654296875 137.539794921875 -4915.67529296875 138.6504669189453 C -4902.33544921875 139.6402893066406 -4888.7548828125 141.0652923583984 -4874.15673828125 143.0066223144531 C -4847.033203125 146.6144561767578 -4820.4140625 151.5124664306641 -4794.671875 156.2491302490234 L -4794.6484375 156.2539520263672 L -4794.64013671875 156.2552947998047 L -4793.7353515625 156.4211273193359 C -4741.83935546875 165.9706268310547 -4688.1767578125 175.8451232910156 -4626.021484375 175.8451232910156 C -4614.43310546875 175.8451232910156 -4602.7099609375 175.4969635009766 -4591.17822265625 174.8101196289063 C -4492.0107421875 168.9197998046875 -4311.4970703125 154.5547943115234 -4309.71875 154.4122924804688 L -4309.61376953125 154.4162902832031 C -4304.5810546875 154.5951232910156 -4277.44384765625 155.5892944335938 -4237.32763671875 157.6099548339844 C -4197.3232421875 159.6242980957031 -4136.32177734375 163.0854644775391 -4072.893798828125 168.1346282958984 C -4001.651123046875 173.8041229248047 -3941.97509765625 180.2807922363281 -3895.52294921875 187.3847961425781 C -3876.559814453125 190.2846221923828 -3859.561279296875 193.3344573974609 -3844.99951171875 196.4499664306641 L -3844.999755859375 361.9574584960938 L -3844.999755859375 361.9584655761719 Z" stroke="none" fill="#65cde8"/>
  </g>
</svg>
