<svg xmlns="http://www.w3.org/2000/svg" xmlns:xlink="http://www.w3.org/1999/xlink" width="644.135" height="653.532" viewBox="0 0 644.135 653.532">
  <defs>
    <filter id="Path_8" x="0" y="114.137" width="316.95" height="286.389" filterUnits="userSpaceOnUse">
      <feOffset dy="6" input="SourceAlpha"/>
      <feGaussianBlur stdDeviation="3" result="blur"/>
      <feFlood flood-color="#65cde8"/>
      <feComposite operator="in" in2="blur"/>
      <feComposite in="SourceGraphic"/>
    </filter>
    <filter id="Ellipse_1" x="256.252" y="296.895" width="124" height="139" filterUnits="userSpaceOnUse">
      <feOffset dx="5" dy="30" input="SourceAlpha"/>
      <feGaussianBlur stdDeviation="5" result="blur-2"/>
      <feFlood flood-opacity="0.161"/>
      <feComposite operator="in" in2="blur-2"/>
      <feComposite in="SourceGraphic"/>
    </filter>
    <radialGradient id="radial-gradient" cx="0.5" cy="0.5" r="0.5" gradientUnits="objectBoundingBox">
      <stop offset="0" stop-color="#7cb3f8"/>
      <stop offset="1" stop-color="#2c59a8"/>
    </radialGradient>
    <linearGradient id="linear-gradient" x1="0.5" x2="0.5" y2="1" gradientUnits="objectBoundingBox">
      <stop offset="0" stop-color="#006fff"/>
      <stop offset="1" stop-color="#65cde8"/>
    </linearGradient>
    <filter id="Ellipse_2" x="257.252" y="132.895" width="49" height="50" filterUnits="userSpaceOnUse">
      <feOffset dy="3" input="SourceAlpha"/>
      <feGaussianBlur stdDeviation="3" result="blur-3"/>
      <feFlood flood-color="#fff"/>
      <feComposite operator="in" in2="blur-3"/>
      <feComposite in="SourceGraphic"/>
    </filter>
    <filter id="Ellipse_11" x="191.252" y="25.895" width="67" height="67" filterUnits="userSpaceOnUse">
      <feOffset dy="3" input="SourceAlpha"/>
      <feGaussianBlur stdDeviation="3" result="blur-4"/>
      <feFlood flood-color="#006fff"/>
      <feComposite operator="in" in2="blur-4"/>
      <feComposite in="SourceGraphic"/>
    </filter>
    <linearGradient id="linear-gradient-3" x1="0.5" x2="0.5" y2="1" gradientUnits="objectBoundingBox">
      <stop offset="0" stop-color="#006fff"/>
      <stop offset="1" stop-color="#abeeff"/>
    </linearGradient>
    <filter id="Ellipse_12" x="528.252" y="378.895" width="96" height="97" filterUnits="userSpaceOnUse">
      <feOffset dy="3" input="SourceAlpha"/>
      <feGaussianBlur stdDeviation="3" result="blur-5"/>
      <feFlood flood-color="#006fff"/>
      <feComposite operator="in" in2="blur-5"/>
      <feComposite in="SourceGraphic"/>
    </filter>
  </defs>
  <g id="Group_10" data-name="Group 10" transform="translate(-119.748 -114.105)">
    <g transform="matrix(1, 0, 0, 1, 119.75, 114.11)" filter="url(#Path_8)">
      <path id="Path_8-2" data-name="Path 8" d="M143.574,0c79.95,0,144.762,59.643,144.762,133.217S223.524,266.433,143.574,266.433c-53.166,0-98.989,11.6-135.179-21.7s-9.583-86.865-9.583-111.512C-1.188,59.643,63.625,0,143.574,0Z" transform="translate(19.61 117.14)" fill="#006fff"/>
    </g>
    <g id="Path_3" data-name="Path 3" transform="matrix(-0.755, -0.656, 0.656, -0.755, 454.331, 767.637)" fill="#65cde8" opacity="0.25">
      <path d="M 190.9632415771484 254.3506317138672 C 178.0324401855469 254.3506317138672 165.1099395751953 253.3545684814453 152.5547943115234 251.3901214599609 C 140.3197479248047 249.4757690429688 128.2852478027344 246.6194305419922 116.7855987548828 242.9003753662109 C 105.4961929321289 239.2492828369141 94.60794830322266 234.73046875 84.42334747314453 229.4694213867188 C 74.33754730224609 224.2594299316406 64.85379791259766 218.2764739990234 56.23554611206055 211.6868286132813 C 47.61979675292969 205.0990295410156 39.79824447631836 197.8507232666016 32.98824691772461 190.1432189941406 C 26.11539649963379 182.3646240234375 20.21279525756836 174.0497741699219 15.44439601898193 165.4296264648438 C 10.58959579467773 156.6532745361328 6.86119556427002 147.4697265625 4.362745761871338 138.134033203125 C 1.799645781517029 128.5567779541016 0.5000457763671875 118.699577331543 0.5000457763671875 108.8363265991211 C 0.5000457763671875 97.41622924804688 1.407895803451538 86.46952819824219 3.198445796966553 76.30027770996094 C 5.251345634460449 64.64112854003906 8.465695381164551 54.05317687988281 12.75219535827637 44.83052444458008 C 22.99974632263184 22.7822265625 39.27569580078125 8.486175537109375 61.12784576416016 2.339475870132446 C 65.46714782714844 1.118925809860229 69.89304351806641 0.500025749206543 74.28254699707031 0.500025749206543 C 79.156494140625 0.500025749206543 84.00849914550781 1.225375771522522 89.11574554443359 2.717475652694702 C 93.68319702148438 4.051925659179688 98.35814666748047 5.975725650787354 103.4076995849609 8.598875999450684 C 112.8221969604492 13.48952579498291 122.2256927490234 20.18912506103516 131.3196411132813 26.66812515258789 C 150.6887969970703 40.46782684326172 170.7173919677734 54.73732757568359 194.1061401367188 54.73732757568359 C 217.9897003173828 54.73732757568359 237.2261505126953 40.32297515869141 255.8292999267578 26.38327598571777 C 264.6290588378906 19.78937530517578 272.9407348632813 13.56122589111328 281.6557312011719 8.829726219177246 C 286.3252563476563 6.294625759124756 290.6634826660156 4.436325550079346 294.9183959960938 3.148675680160522 C 299.6703491210938 1.710575699806213 304.21044921875 1.011525750160217 308.7981567382813 1.011525750160217 C 313.0196533203125 1.011525750160217 317.3028564453125 1.634425759315491 321.5286865234375 2.862825870513916 C 327.1996459960938 4.511375904083252 332.5699462890625 6.774725914001465 337.4903869628906 9.589925765991211 C 342.17529296875 12.27042579650879 346.5696105957031 15.51812553405762 350.5511474609375 19.24287605285645 C 357.9315490722656 26.14712524414063 364.1226501464844 34.88542556762695 368.9525451660156 45.2149772644043 C 373.266357421875 54.44082641601563 376.5196838378906 64.97382354736328 378.6221923828125 76.52142333984375 C 380.4829406738281 86.74097442626953 381.4263916015625 97.61327362060547 381.4263916015625 108.8363265991211 C 381.4263916015625 118.699577331543 380.1268005371094 128.5567321777344 377.5636901855469 138.134033203125 C 375.0652465820313 147.4697265625 371.3368530273438 156.6532745361328 366.4820556640625 165.4296264648438 C 361.7136535644531 174.0497741699219 355.81103515625 182.3646240234375 348.9382019042969 190.1432189941406 C 342.1282043457031 197.8507232666016 334.306640625 205.0990295410156 325.6908569335938 211.6868286132813 C 317.0726318359375 218.2764739990234 307.5888977050781 224.2594299316406 297.5030517578125 229.4694213867188 C 287.3184814453125 234.73046875 276.4302368164063 239.2492828369141 265.1408386230469 242.9003753662109 C 253.6411895751953 246.6194305419922 241.6067504882813 249.4757690429688 229.3716888427734 251.3901214599609 C 216.8164978027344 253.3545684814453 203.89404296875 254.3506317138672 190.9632415771484 254.3506317138672 Z" stroke="none"/>
      <path d="M 190.9632415771484 253.8506317138672 C 203.8682403564453 253.8506317138672 216.7646942138672 252.8565826416016 229.2944030761719 250.8961791992188 C 241.5035400390625 248.9858703613281 253.5122985839844 246.1356201171875 264.9869995117188 242.4246215820313 C 276.2504577636719 238.7819213867188 287.1132507324219 234.2737274169922 297.2735900878906 229.0252227783203 C 307.3334045410156 223.8286285400391 316.7922058105469 217.8615264892578 325.3871459960938 211.2896270751953 C 333.9772338867188 204.7214813232422 341.77490234375 197.4954223632813 348.5635070800781 189.8121795654297 C 355.4122924804688 182.0608215332031 361.2937316894531 173.7759246826172 366.0444946289063 165.1876220703125 C 370.879638671875 156.4468231201172 374.5927429199219 147.3012237548828 377.0806884765625 138.0047760009766 C 379.6325073242188 128.4696197509766 380.9263916015625 118.6559295654297 380.9263916015625 108.8363265991211 C 380.9263916015625 97.64327239990234 379.9856567382813 86.80107879638672 378.1303100585938 76.61097717285156 C 376.0354309082031 65.10562896728516 372.7952575683594 54.61372756958008 368.4996032714844 45.42677688598633 C 363.6968383789063 35.15522766113281 357.5431823730469 26.46852493286133 350.2095947265625 19.60797500610352 C 346.2562866210938 15.9097261428833 341.8934020996094 12.68517589569092 337.2420959472656 10.02392578125 C 332.3558959960938 7.228275775909424 327.0221862792969 4.980525970458984 321.3890991210938 3.342975854873657 C 317.2085571289063 2.127725839614868 312.9723510742188 1.511525750160217 308.7981567382813 1.511525750160217 C 304.26025390625 1.511525750160217 299.7674865722656 2.203575849533081 295.063232421875 3.627225875854492 C 290.8411865234375 4.90492582321167 286.5336608886719 6.750425815582275 281.8943481445313 9.269125938415527 C 273.2113952636719 13.98322582244873 264.9138488769531 20.20077514648438 256.129150390625 26.78337669372559 C 237.4604949951172 40.77222442626953 218.15625 55.23732757568359 194.1061401367188 55.23732757568359 C 170.5574951171875 55.23732757568359 150.4626922607422 40.92067718505859 131.0294952392578 27.07537651062012 C 121.5316925048828 20.3085765838623 112.5605926513672 13.91707611083984 103.1771926879883 9.042575836181641 C 98.15679931640625 6.43457555770874 93.51139831542969 4.522625923156738 88.97549438476563 3.197425842285156 C 83.91444396972656 1.718825697898865 79.10834503173828 1.000025749206543 74.28254699707031 1.000025749206543 C 69.93874359130859 1.000025749206543 65.55839538574219 1.61262571811676 61.26324462890625 2.820825815200806 C 39.55784606933594 8.926176071166992 23.38894653320313 23.1312255859375 13.20559597015381 45.04127502441406 C 8.937445640563965 54.2244758605957 5.736245632171631 64.77067565917969 3.690895795822144 76.38697814941406 C 1.905345797538757 86.52767944335938 1.000045776367188 97.44522857666016 1.000045776367188 108.8363265991211 C 1.000045776367188 118.6559753417969 2.293945789337158 128.4696197509766 4.84574556350708 138.0047760009766 C 7.333695888519287 147.3012237548828 11.04679584503174 156.4468231201172 15.88189601898193 165.1876220703125 C 20.6326961517334 173.7759246826172 26.51414489746094 182.0608215332031 33.36294555664063 189.8121795654297 C 40.15154647827148 197.4954223632813 47.94919586181641 204.7214813232422 56.53924560546875 211.2896270751953 C 65.13424682617188 217.8615264892578 74.59299468994141 223.8286285400391 84.65284729003906 229.0252227783203 C 94.81319427490234 234.2737274169922 105.6759948730469 238.7819213867188 116.9394454956055 242.4246215820313 C 128.4141387939453 246.1356201171875 140.4228973388672 248.9858703613281 152.6320953369141 250.8961791992188 C 165.1617431640625 252.8565826416016 178.0582427978516 253.8506317138672 190.9632415771484 253.8506317138672 M 190.9632415771484 254.8506317138672 C 85.49714660644531 254.8506317138672 4.580078166327439e-05 189.477783203125 4.580078166327439e-05 108.8363265991211 C -4.199218892608769e-06 66.57997894287109 12.465895652771 15.50792598724365 60.99244689941406 1.858175754547119 C 65.53884887695313 0.5793448090553284 69.95976257324219 2.517089887987822e-05 74.28254699707031 2.517089887987822e-05 C 116.0995559692383 2.517089887987822e-05 148.6079254150391 54.23732757568359 194.1061401367188 54.23732757568359 C 239.9563751220703 54.23732757568359 268.8670349121094 0.5115368962287903 308.7981567382813 0.5115368962287903 C 312.9556884765625 0.5115368962287903 317.2404174804688 1.095563650131226 321.6682434082031 2.382725715637207 C 368.623291015625 16.0324764251709 381.9263916015625 66.90302276611328 381.9263916015625 108.8363265991211 C 381.9263916015625 189.477783203125 296.4292602539063 254.8506317138672 190.9632415771484 254.8506317138672 Z" stroke="none" fill="#65cde8"/>
    </g>
    <g transform="matrix(1, 0, 0, 1, 119.75, 114.11)" filter="url(#Ellipse_1)">
      <circle id="Ellipse_1-2" data-name="Ellipse 1" cx="47" cy="47" r="47" transform="translate(266.25 296.89)" fill="#fff"/>
    </g>
    <g id="Path_2" data-name="Path 2" transform="translate(550.723 114.105) rotate(47)" fill="#65cde8" opacity="0.25">
      <path d="M 156.2757415771484 272.2607116699219 C 145.7062377929688 272.2607116699219 135.1435089111328 271.1959228515625 124.880973815918 269.0959167480469 C 114.879508972168 267.0492858886719 105.0417404174805 263.9954833984375 95.64097595214844 260.019287109375 C 86.41070556640625 256.115234375 77.50808715820313 251.2830352783203 69.18039703369141 245.6569519042969 C 60.93170166015625 240.084228515625 53.17497253417969 233.6843414306641 46.12566375732422 226.6350250244141 C 39.07635879516602 219.5857543945313 32.67647171020508 211.8289947509766 27.10378074645996 203.5802917480469 C 21.47770309448242 195.2526092529297 16.64551162719727 186.3499908447266 12.74143409729004 177.1197662353516 C 8.765241622924805 167.7189483642578 5.711433887481689 157.8811798095703 3.664818525314331 147.8797149658203 C 1.564818501472473 137.6171875 0.5000107884407043 127.0544509887695 0.5000107884407043 116.4849548339844 C 0.5000107884407043 104.2534866333008 1.243549227714539 92.52872467041016 2.710010766983032 81.63633728027344 C 4.391587734222412 69.14617919921875 7.024587631225586 57.80337524414063 10.53589534759521 47.92291259765625 C 18.92255020141602 24.32368278503418 32.22916412353516 9.027067184448242 50.08608627319336 2.457990169525146 C 53.61781692504883 1.158759355545044 57.21893310546875 0.4999901652336121 60.78947067260742 0.4999901652336121 C 64.75543212890625 0.4999901652336121 68.7052001953125 1.27256715297699 72.86458587646484 2.861836433410645 C 76.59162902832031 4.285913467407227 80.40805053710938 6.340144157409668 84.5318603515625 9.141836166381836 C 92.22993469238281 14.37187480926514 99.9229736328125 21.54006767272949 107.362663269043 28.47225952148438 C 123.23193359375 43.25891494750977 139.6414794921875 58.5489501953125 158.8477783203125 58.5489501953125 C 178.4608612060547 58.5489501953125 194.2218170166016 43.10333633422852 209.4638519287109 28.16622161865234 C 216.6629333496094 21.11118316650391 223.4627838134766 14.44737434387207 230.5887451171875 9.387643814086914 C 234.4015808105469 6.680374622344971 237.9423980712891 4.696490287780762 241.4135437011719 3.322643995285034 C 245.2816314697266 1.791720986366272 248.9756317138672 1.047490119934082 252.7065887451172 1.047490119934082 C 256.1390075683594 1.047490119934082 259.6228332519531 1.710297822952271 263.0612182617188 3.017528533935547 C 267.6895446777344 4.777182579040527 272.0732727050781 7.193605422973633 276.0906677246094 10.19972133636475 C 279.919677734375 13.06487464904785 283.511962890625 16.53737449645996 286.7677917480469 20.52079772949219 C 292.8096008300781 27.91279792785645 297.8786315917969 37.27056884765625 301.8340759277344 48.33418273925781 C 305.3677062988281 58.21787643432617 308.0326232910156 69.50164031982422 309.7548217773438 81.87214660644531 C 311.2787780761719 92.81867980957031 312.0514831542969 104.4641036987305 312.0514831542969 116.4849548339844 C 312.0514831542969 127.0544509887695 310.9866638183594 137.6171875 308.8866577148438 147.8797149658203 C 306.8400573730469 157.8811798095703 303.7862548828125 167.7189483642578 299.81005859375 177.1197662353516 C 295.9059753417969 186.3499908447266 291.0737915039063 195.2526092529297 285.4476928710938 203.5802917480469 C 279.875 211.8289947509766 273.4751281738281 219.5857543945313 266.4258117675781 226.6350250244141 C 259.3765258789063 233.6843414306641 251.6197814941406 240.084228515625 243.37109375 245.6569519042969 C 235.0433959960938 251.2830352783203 226.1407775878906 256.115234375 216.9105072021484 260.019287109375 C 207.5097351074219 263.9954833984375 197.6719665527344 267.0492858886719 187.6705169677734 269.0959167480469 C 177.4079742431641 271.1959228515625 166.8452453613281 272.2607116699219 156.2757415771484 272.2607116699219 Z" stroke="none"/>
      <path d="M 156.2757415771484 271.7607116699219 C 166.8116607666016 271.7607116699219 177.3406524658203 270.6993408203125 187.5702819824219 268.6060485839844 C 197.5394134521484 266.5660400390625 207.3453674316406 263.5221252441406 216.7157440185547 259.5588073730469 C 225.9162902832031 255.6672973632813 234.7902374267578 250.8506317138672 243.0912017822266 245.2426300048828 C 251.3135375976563 239.6877136230469 259.0455017089844 233.3083038330078 266.0722961425781 226.2814636230469 C 273.0990600585938 219.2546844482422 279.4785461425781 211.5227203369141 285.0334167480469 203.3003845214844 C 290.6414489746094 194.9994659423828 295.4580688476563 186.1254730224609 299.3495788574219 176.9249725341797 C 303.3128967285156 167.5545959472656 306.3568115234375 157.7486419677734 308.3968200683594 147.7795104980469 C 310.4901123046875 137.5498809814453 311.5514831542969 127.0208892822266 311.5514831542969 116.4849700927734 C 311.5514831542969 104.4871368408203 310.7803649902344 92.86489105224609 309.2595825195313 81.94109344482422 C 307.5421142578125 69.60443115234375 304.8854064941406 58.35405349731445 301.36328125 48.50251388549805 C 297.4270629882813 37.49280548095703 292.3861999511719 28.18488693237305 286.3806457519531 20.83722114562988 C 283.1504516601563 16.88517951965332 279.587646484375 13.4409294128418 275.7911071777344 10.60005474090576 C 271.81103515625 7.621845722198486 267.4683227539063 5.227971076965332 262.883544921875 3.484887599945068 C 259.5020751953125 2.199304342269897 256.0780639648438 1.547470927238464 252.7066192626953 1.547470927238464 C 249.0397796630859 1.547470927238464 245.4059906005859 2.280220985412598 241.5975341796875 3.787554264068604 C 238.1641998291016 5.146429061889648 234.6579132080078 7.11159610748291 230.8782043457031 9.795304298400879 C 223.7844848632813 14.83217906951904 216.9983673095703 21.48251342773438 209.8137817382813 28.52334594726563 C 194.5000762939453 43.53067779541016 178.6650390625 59.04893112182617 158.8477783203125 59.04893112182617 C 139.4446105957031 59.04893112182617 122.9618682861328 43.69063949584961 107.0218276977539 28.83805465698242 C 99.25411987304688 21.60026168823242 91.91716003417969 14.7638463973999 84.25086975097656 9.555387496948242 C 80.15944671630859 6.775721073150635 76.37657165527344 4.739012718200684 72.68611907958984 3.328887701034546 C 68.58473968505859 1.761762619018555 64.69332122802734 0.9999709725379944 60.78948974609375 0.9999709725379944 C 57.278076171875 0.9999709725379944 53.73503494262695 1.648387670516968 50.25874328613281 2.927221059799194 C 32.54778289794922 9.44263744354248 19.34161567687988 24.63768005371094 11.0070333480835 48.09034729003906 C 7.507283210754395 57.9382209777832 4.882491588592529 69.24717712402344 3.205533266067505 81.70301055908203 C 1.742033243179321 92.57338714599609 0.9999915957450867 104.2757186889648 0.9999915957450867 116.4849700927734 C 0.9999915957450867 127.0208892822266 2.061366558074951 137.5498809814453 4.154658317565918 147.7795104980469 C 6.194658279418945 157.7486419677734 9.238574981689453 167.5545959472656 13.20190811157227 176.9249725341797 C 17.09340858459473 186.1254730224609 21.9100341796875 194.9994659423828 27.51807403564453 203.3003845214844 C 33.07294845581055 211.5227203369141 39.45240783691406 219.2546844482422 46.47919845581055 226.2814636230469 C 53.5059928894043 233.3083038330078 61.23794937133789 239.6877136230469 69.46028137207031 245.2426300048828 C 77.76123809814453 250.8506317138672 86.63520050048828 255.6672973632813 95.83573913574219 259.5588073730469 C 105.2061157226563 263.5221252441406 115.012077331543 266.5660400390625 124.981201171875 268.6060485839844 C 135.2108306884766 270.6993408203125 145.7398223876953 271.7607116699219 156.2757415771484 271.7607116699219 M 156.2757415771484 272.7607116699219 C 69.96703338623047 272.7607116699219 -8.422851351497229e-06 202.7936401367188 -8.422851351497229e-06 116.4849700927734 C -8.422851351497229e-06 71.25897216796875 10.20153331756592 16.59772109985352 49.91349029541016 1.988720893859863 C 53.63406372070313 0.6200188398361206 57.25193023681641 -1.147460898209829e-05 60.78950881958008 -1.147460898209829e-05 C 95.01067352294922 -1.147460898209829e-05 121.6140747070313 58.04893112182617 158.8477783203125 58.04893112182617 C 196.3695678710938 58.04893112182617 220.0287475585938 0.5474911332130432 252.7066040039063 0.5474911332130432 C 256.1089477539063 0.5474911332130432 259.6153564453125 1.172560572624207 263.2389221191406 2.550179243087769 C 301.664794921875 17.1591796875 312.5514831542969 71.60472106933594 312.5514831542969 116.4849700927734 C 312.5514831542969 202.7936401367188 242.5844573974609 272.7607116699219 156.2757415771484 272.7607116699219 Z" stroke="none" fill="#65cde8"/>
    </g>
    <g id="Path_1" data-name="Path 1" transform="translate(269.868 207.097) rotate(7)" fill="url(#radial-gradient)">
      <path d="M 78.42054748535156 351.3705749511719 C 73.79724884033203 351.3705749511719 69.13484954833984 350.5177001953125 64.562744140625 348.8357543945313 C 41.48434829711914 340.3458251953125 24.28919792175293 320.5832214355469 13.45504760742188 290.096923828125 C 8.921947479248047 277.3413696289063 5.522897720336914 262.6988525390625 3.352298021316528 246.5762634277344 C 1.45964789390564 232.518310546875 0.4999979138374329 217.3864593505859 0.4999979138374329 201.6010131835938 C 0.4999979138374329 187.9562683105469 1.874597907066345 174.3201599121094 4.585648059844971 161.0716094970703 C 7.227747917175293 148.1600189208984 11.17014789581299 135.4597625732422 16.30329704284668 123.3235626220703 C 21.34334754943848 111.4076080322266 27.58149719238281 99.91466522216797 34.84459686279297 89.16386413574219 C 42.03874969482422 78.51511383056641 50.30074691772461 68.50151062011719 59.40109634399414 59.4011116027832 C 68.50149536132813 50.30076217651367 78.51509857177734 42.03876113891602 89.16384887695313 34.84461212158203 C 99.91464996337891 27.58151245117188 111.407600402832 21.34336090087891 123.3235473632813 16.30331230163574 C 135.4597473144531 11.17016124725342 148.1600036621094 7.227761745452881 161.0715942382813 4.5856614112854 C 174.3201446533203 1.874611496925354 187.9562530517578 0.5000115036964417 201.6009979248047 0.5000115036964417 C 215.2457427978516 0.5000115036964417 228.8818511962891 1.874611496925354 242.1304016113281 4.5856614112854 C 255.0419921875 7.227761745452881 267.7422485351563 11.17016124725342 279.8784484863281 16.30331230163574 C 291.7944030761719 21.34336090087891 303.287353515625 27.58151245117188 314.0381469726563 34.84461212158203 C 324.6868896484375 42.03876113891602 334.7005004882813 50.30076217651367 343.8009033203125 59.4011116027832 C 352.9012451171875 68.50151062011719 361.1632385253906 78.51511383056641 368.3573913574219 89.16386413574219 C 375.6204833984375 99.91466522216797 381.858642578125 111.4076080322266 386.8987121582031 123.3235626220703 C 392.0318603515625 135.4597625732422 395.9742431640625 148.1600189208984 398.6163330078125 161.0716094970703 C 401.327392578125 174.3201599121094 402.7019958496094 187.9562683105469 402.7019958496094 201.6010131835938 C 402.7019958496094 217.1149597167969 401.7047119140625 232.1446685791016 399.7378540039063 246.272705078125 C 397.5148010253906 262.2408752441406 394.0745544433594 276.8070678710938 389.5127563476563 289.566650390625 C 384.4045104980469 303.8547668457031 377.8570861816406 315.9410705566406 370.0524597167969 325.4898071289063 C 365.8449096679688 330.6376647949219 361.2021484375 335.1255187988281 356.2532043457031 338.8286743164063 C 351.0598449707031 342.7148132324219 345.3927612304688 345.838623046875 339.4093933105469 348.1134033203125 C 334.9599609375 349.8050231933594 330.4483337402344 350.6632690429688 325.9999389648438 350.664306640625 C 325.9972839355469 350.664306640625 325.9943237304688 350.664306640625 325.9916687011719 350.664306640625 C 321.1624450683594 350.6643676757813 316.3821411132813 349.70166015625 311.3773498535156 347.7214050292969 C 306.8882446289063 345.9452209472656 302.3102416992188 343.3806762695313 297.3816528320313 339.8812561035156 C 288.1790466308594 333.3471984863281 279.4024963378906 324.7457580566406 270.1106567382813 315.6392517089844 C 250.4696502685547 296.3900146484375 230.1600036621094 276.4854736328125 204.9190521240234 276.4854736328125 C 180.1993408203125 276.4854736328125 159.0516967773438 296.1903686523438 138.600341796875 315.2464599609375 C 128.9988403320313 324.1929626464844 119.0704498291016 333.4440002441406 109.1304473876953 340.1972045898438 C 103.8012008666992 343.81787109375 98.86819458007813 346.4729614257813 94.04954528808594 348.3141174316406 C 88.66699981689453 350.3707580566406 83.55469512939453 351.3705749511719 78.42054748535156 351.3705749511719 Z" stroke="none"/>
      <path d="M 201.6009979248047 1 C 187.9898529052734 1 174.3874969482422 2.3712158203125 161.1718444824219 5.07550048828125 C 148.2925415039063 7.71099853515625 135.6240844726563 11.64352416992188 123.5183410644531 16.76382446289063 C 111.6321411132813 21.791259765625 100.1677856445313 28.013916015625 89.44375610351563 35.2589111328125 C 78.8214111328125 42.43527221679688 68.83255004882813 50.67681884765625 59.75469970703125 59.75469970703125 C 50.67678833007813 68.83255004882813 42.43524169921875 78.8214111328125 35.2589111328125 89.44375610351563 C 28.01388549804688 100.1678161621094 21.791259765625 111.6321716308594 16.7637939453125 123.5183563232422 C 11.64349365234375 135.6241149902344 7.71099853515625 148.2925567626953 5.07550048828125 161.1718597412109 C 2.371185302734375 174.3875122070313 1 187.9898681640625 1 201.6010131835938 C 1 217.3642120361328 1.958160400390625 232.4736175537109 3.847808837890625 246.5095520019531 C 6.0137939453125 262.597900390625 9.4046630859375 277.2065124511719 13.9261474609375 289.9295043945313 C 24.708251953125 320.2692260742188 41.80288696289063 339.9302673339844 64.73529052734375 348.3665161132813 C 69.25204467773438 350.028076171875 73.85638427734375 350.8705749511719 78.42050170898438 350.8705749511719 C 83.49258422851563 350.8705749511719 88.54653930664063 349.8815612792969 93.87109375 347.8470458984375 C 98.65313720703125 346.0198669433594 103.5526123046875 343.38232421875 108.8494873046875 339.7835998535156 C 118.7576904296875 333.052001953125 128.6718444824219 323.8142700195313 138.2594909667969 314.8806762695313 C 158.7816467285156 295.758544921875 180.0025024414063 275.9854736328125 204.9190521240234 275.9854736328125 C 230.3655548095703 275.9854736328125 250.7503051757813 295.96240234375 270.4639282226563 315.2816772460938 C 279.7406921386719 324.372802734375 288.5029296875 332.9597778320313 297.6727905273438 339.4707641601563 C 302.5679931640625 342.9465026855469 307.1112365722656 345.4925231933594 311.5623168945313 347.254150390625 C 316.5099487304688 349.21240234375 321.2325439453125 350.164306640625 326.0000915527344 350.164306640625 C 330.3846435546875 350.164306640625 334.8364562988281 349.3170776367188 339.2317504882813 347.64599609375 C 345.1715087890625 345.3878173828125 350.797607421875 342.2865600585938 355.9536437988281 338.4283752441406 C 360.8701477050781 334.7494506835938 365.4833984375 330.2898559570313 369.665283203125 325.1734008789063 C 377.4336853027344 315.6689453125 383.9529418945313 303.6325073242188 389.0419616699219 289.3983154296875 C 393.5922546386719 276.6708679199219 397.0242614746094 262.1381225585938 399.2425842285156 246.2037658691406 C 401.206298828125 232.0985107421875 402.2019958496094 217.0919647216797 402.2019958496094 201.6010131835938 C 402.2019958496094 187.9898681640625 400.830810546875 174.3875122070313 398.1264953613281 161.1718597412109 C 395.4909973144531 148.2925567626953 391.5585021972656 135.6241149902344 386.4382019042969 123.5183563232422 C 381.4107360839844 111.6321716308594 375.1881103515625 100.1678161621094 367.9430847167969 89.44375610351563 C 360.7667541503906 78.8214111328125 352.5252075195313 68.83255004882813 343.4472961425781 59.75469970703125 C 334.3694458007813 50.67681884765625 324.380615234375 42.43527221679688 313.7582397460938 35.2589111328125 C 303.0341796875 28.013916015625 291.5698547363281 21.791259765625 279.6836547851563 16.76382446289063 C 267.577880859375 11.64352416992188 254.9094543457031 7.71099853515625 242.0301513671875 5.07550048828125 C 228.8144989013672 2.3712158203125 215.2121429443359 1 201.6009979248047 1 M 201.6009979248047 0 C 312.942138671875 0 403.2019958496094 90.25985717773438 403.2019958496094 201.6010131835938 C 403.2019958496094 259.4980163574219 389.1578369140625 329.7346496582031 339.5870971679688 348.5807495117188 C 334.91259765625 350.3579406738281 330.3891906738281 351.164306640625 326.0000610351563 351.164306640625 C 283.8445739746094 351.164306640625 253.3234100341797 276.9854736328125 204.9190521240234 276.9854736328125 C 156.8862915039063 276.9854736328125 122.5669860839844 351.8705444335938 78.42050170898438 351.8705444335938 C 73.85690307617188 351.8705444335938 69.18972778320313 351.0706787109375 64.39004516601563 349.3050231933594 C 13.16030883789063 330.4589233398438 0 259.9440002441406 0 201.6010131835938 C 0 90.25985717773438 90.25985717773438 0 201.6009979248047 0 Z" stroke="none" fill="#65cde8"/>
    </g>
    <g id="Path_5" data-name="Path 5" transform="translate(731.807 336.356) rotate(-113)" fill="#34a2f6" opacity="0.5">
      <path d="M 26.29043579101563 27.76287651062012 C 22.78375625610352 27.76287651062012 19.38314628601074 27.34017562866211 16.18306541442871 26.50650596618652 C 13.10048580169678 25.70344543457031 10.33468532562256 24.5554256439209 7.962515830993652 23.09434700012207 C 5.607815742492676 21.6440258026123 3.762625694274902 19.96028709411621 2.47821569442749 18.08990669250488 C 1.165565848350525 16.17842674255371 0.5000057816505432 14.15301609039307 0.5000057816505432 12.06992626190186 C 0.5000057816505432 8.498876571655273 1.540305733680725 2.272356271743774 8.507485389709473 0.6937062740325928 C 9.074755668640137 0.5651662945747375 9.653175354003906 0.4999962747097015 10.22667598724365 0.4999962747097015 C 12.91122531890869 0.4999962747097015 15.31999588012695 1.882406234741211 17.87020492553711 3.345986366271973 C 20.58482551574707 4.903926372528076 23.39186668395996 6.514906406402588 26.72313499450684 6.514906406402588 C 30.12752532958984 6.514906406402588 32.82712554931641 4.885416507720947 35.43783569335938 3.3095862865448 C 37.78322601318359 1.893906235694885 39.99853515625 0.5567262768745422 42.51309585571289 0.5567262768745422 C 43.06246566772461 0.5567262768745422 43.62025451660156 0.6221162676811218 44.17096710205078 0.7510762810707092 C 46.97159576416016 1.406886339187622 49.07564544677734 2.917806386947632 50.42465591430664 5.241846084594727 C 51.79353713989258 7.600126266479492 52.08087539672852 10.25664615631104 52.08087539672852 12.06992626190186 C 52.08087539672852 14.15301609039307 51.41531753540039 16.17842674255371 50.10266494750977 18.08990669250488 C 48.81825637817383 19.96028709411621 46.97306442260742 21.6440258026123 44.61836624145508 23.09434700012207 C 42.24618530273438 24.5554256439209 39.48039627075195 25.70344543457031 36.3978157043457 26.50650596618652 C 33.19772720336914 27.34017562866211 29.79711532592773 27.76287651062012 26.29043579101563 27.76287651062012 Z" stroke="none"/>
      <path d="M 26.29043579101563 27.26287651062012 C 29.75460624694824 27.26287651062012 33.11281585693359 26.84560585021973 36.27176666259766 26.02265548706055 C 39.3062858581543 25.23211669921875 42.02626419067383 24.10365676879883 44.35615539550781 22.66861534118652 C 46.65108489990234 21.25510597229004 48.44581604003906 19.61937713623047 49.69049453735352 17.80686569213867 C 50.94486618041992 15.98024654388428 51.58087539672852 14.0500659942627 51.58087539672852 12.06992626190186 C 51.58087539672852 10.31805610656738 51.30525588989258 7.754916191101074 49.99222564697266 5.492856502532959 C 48.71509552001953 3.292646169662476 46.71818542480469 1.861076235771179 44.05695724487305 1.237906336784363 C 43.54357528686523 1.11768627166748 43.02413558959961 1.056726336479187 42.51309585571289 1.056726336479187 C 40.13773727416992 1.056726336479187 37.98031616210938 2.358956336975098 35.69621658325195 3.737646341323853 C 33.02691650390625 5.348846435546875 30.2667350769043 7.014906406402588 26.72313499450684 7.014906406402588 C 23.25858497619629 7.014906406402588 20.39277648925781 5.370196342468262 17.6213264465332 3.779646396636963 C 15.13056564331055 2.350186347961426 12.77794551849365 0.9999963045120239 10.22667598724365 0.9999963045120239 C 9.690316200256348 0.9999963045120239 9.149065971374512 1.061006307601929 8.617976188659668 1.181346297264099 C 5.87238597869873 1.803446292877197 3.833975791931152 3.238986253738403 2.559375762939453 5.448086261749268 C 1.270545840263367 7.681826114654541 1.000005841255188 10.28199672698975 1.000005841255188 12.06992626190186 C 1.000005841255188 14.0500659942627 1.636015772819519 15.98024654388428 2.890385866165161 17.80686569213867 C 4.13506555557251 19.61937713623047 5.929795742034912 21.25510597229004 8.224725723266602 22.66861534118652 C 10.55461597442627 24.10365676879883 13.27459621429443 25.23211669921875 16.30911636352539 26.02265548706055 C 19.46806526184082 26.84560585021973 22.82626533508301 27.26287651062012 26.29043579101563 27.26287651062012 M 26.29043579101563 28.26287651062012 C 11.7706356048584 28.26287651062012 5.791015610157046e-06 21.01304626464844 5.791015610157046e-06 12.06992626190186 C 5.791015610157046e-06 7.383706092834473 1.716215848922729 1.719826340675354 8.396995544433594 0.2060662806034088 C 9.02291202545166 0.06424461305141449 9.631546974182129 -1.09985353446973e-06 10.22667789459229 -1.09985353446973e-06 C 15.98374557495117 -1.09985353446973e-06 20.45926666259766 6.014906406402588 26.72313499450684 6.014906406402588 C 33.03547286987305 6.014906406402588 37.01567077636719 0.05673046410083771 42.51309967041016 0.05673046410083771 C 43.08547592163086 0.05673046410083771 43.67537307739258 0.1214997470378876 44.28496551513672 0.2642462849617004 C 50.74940490722656 1.777996301651001 52.58087539672852 7.419526100158691 52.58087539672852 12.06992626190186 C 52.58087539672852 21.01304626464844 40.81024551391602 28.26287651062012 26.29043579101563 28.26287651062012 Z" stroke="none" fill="#65cde8"/>
    </g>
    <g id="Path_6" data-name="Path 6" transform="matrix(-0.454, -0.891, 0.891, -0.454, 208.126, 583.369)" fill="#34a2f6" opacity="0.5">
      <path d="M 10.22667407989502 27.76287651062012 C 9.653173446655273 27.76287651062012 9.074753761291504 27.69770812988281 8.50748348236084 27.56916809082031 C 1.540303826332092 25.99051666259766 0.5000038743019104 19.76400756835938 0.5000038743019104 16.19295692443848 C 0.5000038743019104 14.10986709594727 1.165563941001892 12.08445739746094 2.478213787078857 10.17297744750977 C 3.76262378692627 8.302587509155273 5.607813835144043 6.618857383728027 7.96251392364502 5.168537139892578 C 10.33468341827393 3.707447290420532 13.10048389434814 2.559427261352539 16.18306350708008 1.756367325782776 C 19.38314437866211 0.9227073788642883 22.78375434875488 0.4999973773956299 26.29043388366699 0.4999973773956299 C 29.7971134185791 0.4999973773956299 33.19772338867188 0.9226973652839661 36.3978157043457 1.756367325782776 C 39.48039245605469 2.559427261352539 42.24618530273438 3.707447290420532 44.61836242675781 5.168527603149414 C 46.97306442260742 6.618847370147705 48.81825256347656 8.302587509155273 50.10266494750977 10.17296695709229 C 51.41530227661133 12.08444690704346 52.08086395263672 14.1098575592041 52.08086395263672 16.19294738769531 C 52.08086395263672 18.00621795654297 51.79352569580078 20.66274642944336 50.42464447021484 23.02101707458496 C 49.07563400268555 25.34506797790527 46.97158432006836 26.85598754882813 44.17095565795898 27.51179695129395 C 43.62057495117188 27.64067649841309 43.06277465820313 27.70606803894043 42.51302337646484 27.70613670349121 C 42.51271820068359 27.70613670349121 42.51231384277344 27.70613670349121 42.51200866699219 27.70613670349121 C 39.99771881103516 27.7061710357666 37.78263854980469 26.36900520324707 35.43741226196289 24.95333671569824 C 32.82681274414063 23.37747764587402 30.12734413146973 21.74796676635742 26.7231330871582 21.74796676635742 C 23.39186477661133 21.74796676635742 20.58482360839844 23.35894775390625 17.87019348144531 24.9168872833252 C 15.31999397277832 26.38046646118164 12.91121387481689 27.76287651062012 10.22667407989502 27.76287651062012 Z" stroke="none"/>
      <path d="M 26.29043388366699 0.9999980926513672 C 22.82626342773438 0.9999980926513672 19.46806335449219 1.417266845703125 16.30911254882813 2.240217208862305 C 13.27459335327148 3.030757904052734 10.55461502075195 4.159217834472656 8.224723815917969 5.594257354736328 C 5.929794311523438 7.007766723632813 4.135055541992188 8.643497467041016 2.890373229980469 10.45601654052734 C 1.636013031005859 12.28263664245605 0.9999923706054688 14.21281719207764 0.9999923706054688 16.19295692443848 C 0.9999923706054688 17.98088836669922 1.270534515380859 20.58104705810547 2.559364318847656 22.81478691101074 C 3.833972930908203 25.02388763427734 5.872383117675781 26.45941734313965 8.617973327636719 27.08152770996094 C 9.149063110351563 27.20186805725098 9.690315246582031 27.26287841796875 10.2266731262207 27.26287841796875 C 12.77793502807617 27.26287841796875 15.13055419921875 25.91269683837891 17.62131500244141 24.48322677612305 C 20.39277267456055 22.89267730712891 23.25858306884766 21.24796676635742 26.7231330871582 21.24796676635742 C 30.26673316955566 21.24796676635742 33.02691650390625 22.91401672363281 35.69621276855469 24.52521705627441 C 37.98031616210938 25.90390777587891 40.13774490356445 27.20613670349121 42.51309204101563 27.20613670349121 C 43.02416229248047 27.20613670349121 43.54358291625977 27.14518737792969 44.05695343017578 27.02496719360352 C 46.71817398071289 26.40179824829102 48.71508407592773 24.97021675109863 49.99221420288086 22.7700080871582 C 51.30524444580078 20.5079460144043 51.58086395263672 17.94481658935547 51.58086395263672 16.19294738769531 C 51.58086395263672 14.21280765533447 50.94485473632813 12.28262710571289 49.69048309326172 10.45600700378418 C 48.4458122253418 8.643497467041016 46.65107345581055 7.007766723632813 44.35614395141602 5.594257354736328 C 42.02625274658203 4.159217834472656 39.3062744140625 3.030757904052734 36.27175140380859 2.240217208862305 C 33.11281585693359 1.417266845703125 29.75460433959961 0.9999980926513672 26.29043388366699 0.9999980926513672 M 26.29043388366699 -1.9073486328125e-06 C 40.81024169921875 -1.9073486328125e-06 52.58086395263672 7.249826431274414 52.58086395263672 16.19294738769531 C 52.58086395263672 20.84333801269531 50.74939346313477 26.48486709594727 44.28495407104492 27.99862670898438 C 43.67536163330078 28.14137268066406 43.08547592163086 28.20614051818848 42.51309585571289 28.20614051818848 C 37.01567459106445 28.20614051818848 33.03546142578125 22.24796676635742 26.7231330871582 22.24796676635742 C 20.45926666259766 22.24796676635742 15.98373413085938 28.26287460327148 10.2266731262207 28.26287460327148 C 9.631542205810547 28.26287460327148 9.022911071777344 28.19862937927246 8.396995544433594 28.05680656433105 C 1.716213226318359 26.54304695129395 -7.62939453125e-06 20.8791675567627 -7.62939453125e-06 16.19295692443848 C 3.814697265625e-06 7.249837875366211 11.77063369750977 -1.9073486328125e-06 26.29043388366699 -1.9073486328125e-06 Z" stroke="none" fill="#65cde8"/>
    </g>
    <g id="Path_7" data-name="Path 7" transform="matrix(-0.966, -0.259, 0.259, -0.966, 571.478, 613.057)" fill="#34a2f6" opacity="0.5">
      <path d="M 12.89396667480469 27.76287651062012 C 12.15366649627686 27.76287651062012 11.40727615356445 27.69619750976563 10.67551612854004 27.56468772888184 C 1.821956634521484 25.97359657287598 0.4999966025352478 19.75699806213379 0.4999966025352478 16.19295692443848 C 0.4999966025352478 14.13059711456299 1.335366606712341 12.12006759643555 2.982896566390991 10.21720695495605 C 4.608076572418213 8.340167045593262 6.944786548614502 6.649467468261719 9.928136825561523 5.19206714630127 C 12.93477630615234 3.72327733039856 16.43989753723145 2.569297313690186 20.34613609313965 1.762177348136902 C 24.39949607849121 0.9246573448181152 28.70647621154785 0.4999973773956299 33.14743804931641 0.4999973773956299 C 37.58838653564453 0.4999973773956299 41.89536666870117 0.9246573448181152 45.94873809814453 1.762177348136902 C 49.85496520996094 2.569297313690186 53.36008834838867 3.72327733039856 56.36672592163086 5.192057132720947 C 59.35007476806641 6.649467468261719 61.68678665161133 8.340167045593262 63.31196594238281 10.21720695495605 C 64.95948791503906 12.12005710601807 65.79485321044922 14.13058757781982 65.79485321044922 16.19294738769531 C 65.79485321044922 17.99307823181152 65.43453979492188 20.6312370300293 63.71798706054688 22.97673797607422 C 62.00422668457031 25.31839752197266 59.32137680053711 26.84260749816895 55.74393844604492 27.50703811645508 C 55.03300476074219 27.63906669616699 54.31207656860352 27.70605659484863 53.6011848449707 27.70613670349121 C 53.60079193115234 27.70613670349121 53.60025024414063 27.70613670349121 53.59985733032227 27.70613670349121 C 50.36779403686523 27.70617866516113 47.55175399780273 26.35787391662598 44.57022476196289 24.93041801452637 C 41.30227661132813 23.3658275604248 37.92307662963867 21.74796676635742 33.69297790527344 21.74796676635742 C 29.55246734619141 21.74796676635742 26.03720664978027 23.34805679321289 22.63769721984863 24.89546775817871 C 19.39815711975098 26.37006759643555 16.33828735351563 27.76287651062012 12.89396667480469 27.76287651062012 Z" stroke="none"/>
      <path d="M 33.14743804931641 0.9999980926513672 C 28.74039840698242 0.9999980926513672 24.46745681762695 1.421176910400391 20.44730758666992 2.251836776733398 C 16.58200836181641 3.050497055053711 13.1166877746582 4.190887451171875 10.14759826660156 5.641326904296875 C 7.225116729736328 7.068996429443359 4.941738128662109 8.718656539916992 3.360897064208984 10.54449653625488 C 1.794319152832031 12.35384750366211 1 14.25426769256592 1 16.19295692443848 C 1 17.95466613769531 1.337173461914063 20.51820755004883 2.943477630615234 22.72627639770508 C 4.576587677001953 24.97117805480957 7.207775115966797 26.43348693847656 10.76395797729492 27.07257843017578 C 11.46661758422852 27.1988468170166 12.18325805664063 27.26287841796875 12.89396667480469 27.26287841796875 C 16.22983551025391 27.26287841796875 19.24176788330078 25.89188766479492 22.43054580688477 24.44039726257324 C 25.87858581542969 22.87089729309082 29.44401550292969 21.24796676635742 33.69297790527344 21.24796676635742 C 38.03681945800781 21.24796676635742 41.46822738647461 22.89071655273438 44.78666687011719 24.4793872833252 C 47.71573638916016 25.88164710998535 50.48235702514648 27.20613670349121 53.60123443603516 27.20613670349121 C 54.28114700317383 27.20613670349121 54.97133636474609 27.14197731018066 55.65262603759766 27.01543807983398 C 59.10065460205078 26.37504768371582 61.6784782409668 24.91687774658203 63.31449508666992 22.68143844604492 C 64.95128631591797 20.44493865966797 65.29485321044922 17.91851806640625 65.29485321044922 16.19294738769531 C 65.29485321044922 14.25425720214844 64.50053405761719 12.35383796691895 62.93395614624023 10.54448699951172 C 61.35311508178711 8.718656539916992 59.06974792480469 7.068986892700195 56.14726638793945 5.641317367553711 C 53.17817687988281 4.190887451171875 49.71285629272461 3.050497055053711 45.84755706787109 2.251836776733398 C 41.82740783691406 1.421176910400391 37.55447387695313 0.9999980926513672 33.14743804931641 0.9999980926513672 M 33.14743804931641 -1.9073486328125e-06 C 51.45424652099609 -1.9073486328125e-06 66.29485321044922 7.249826431274414 66.29485321044922 16.19294738769531 C 66.29485321044922 20.84333801269531 63.98569488525391 26.48486709594727 55.83522796630859 27.99862670898438 C 55.06664276123047 28.14137268066406 54.32290267944336 28.20614051818848 53.60124206542969 28.20614051818848 C 46.66999816894531 28.20614051818848 41.65167617797852 22.24796676635742 33.69297790527344 22.24796676635742 C 25.79539108276367 22.24796676635742 20.15256881713867 28.26287460327148 12.89396667480469 28.26287460327148 C 12.14361572265625 28.26287460327148 11.37623977661133 28.19862937927246 10.58707809448242 28.05680656433105 C 2.163833618164063 26.54304695129395 0 20.8791675567627 0 16.19295692443848 C 0 7.249837875366211 14.84061813354492 -1.9073486328125e-06 33.14743804931641 -1.9073486328125e-06 Z" stroke="none" fill="#65cde8"/>
    </g>
    <g transform="matrix(1, 0, 0, 1, 119.75, 114.11)" filter="url(#Ellipse_2)">
      <ellipse id="Ellipse_2-2" data-name="Ellipse 2" cx="15.5" cy="16" rx="15.5" ry="16" transform="translate(266.25 138.89)" fill="url(#linear-gradient)"/>
    </g>
    <g id="Group_2" data-name="Group 2" transform="translate(186.192 194.685) rotate(8)">
      <g id="Group_1" data-name="Group 1">
        <g id="Ellipse_10" data-name="Ellipse 10" transform="translate(0 0)" fill="none" stroke="#5edafb" stroke-width="1">
          <ellipse cx="83.482" cy="83.926" rx="83.482" ry="83.926" stroke="none"/>
          <ellipse cx="83.482" cy="83.926" rx="82.982" ry="83.426" fill="none"/>
        </g>
      </g>
      <g id="Ellipse_9" data-name="Ellipse 9" transform="translate(8.881 4.441)" fill="none" stroke="#5edafb" stroke-width="1">
        <ellipse cx="79.042" cy="79.486" rx="79.042" ry="79.486" stroke="none"/>
        <ellipse cx="79.042" cy="79.486" rx="78.542" ry="78.986" fill="none"/>
      </g>
      <g id="Ellipse_8" data-name="Ellipse 8" transform="translate(20.427 10.657)" fill="none" stroke="#5edafb" stroke-width="1">
        <circle cx="73.269" cy="73.269" r="73.269" stroke="none"/>
        <circle cx="73.269" cy="73.269" r="72.769" fill="none"/>
      </g>
      <g id="Ellipse_7" data-name="Ellipse 7" transform="translate(30.196 15.098)" fill="none" stroke="#5edafb" stroke-width="1">
        <ellipse cx="68.384" cy="68.829" rx="68.384" ry="68.829" stroke="none"/>
        <ellipse cx="68.384" cy="68.829" rx="67.884" ry="68.329" fill="none"/>
      </g>
      <g id="Ellipse_6" data-name="Ellipse 6" transform="translate(45.294 23.091)" fill="none" stroke="#5edafb" stroke-width="1">
        <circle cx="60.836" cy="60.836" r="60.836" stroke="none"/>
        <circle cx="60.836" cy="60.836" r="60.336" fill="none"/>
      </g>
      <g id="Ellipse_5" data-name="Ellipse 5" transform="translate(61.28 31.084)" fill="none" stroke="#5edafb" stroke-width="1">
        <circle cx="52.843" cy="52.843" r="52.843" stroke="none"/>
        <circle cx="52.843" cy="52.843" r="52.343" fill="none"/>
      </g>
      <g id="Ellipse_4" data-name="Ellipse 4" transform="translate(79.93 42.629)" fill="none" stroke="#5edafb" stroke-width="1">
        <circle cx="43.517" cy="43.517" r="43.517" stroke="none"/>
        <circle cx="43.517" cy="43.517" r="43.017" fill="none"/>
      </g>
      <g id="Ellipse_3" data-name="Ellipse 3" transform="translate(94.14 49.734)" fill="none" stroke="#5edafb" stroke-width="1">
        <circle cx="36.413" cy="36.413" r="36.413" stroke="none"/>
        <circle cx="36.413" cy="36.413" r="35.913" fill="none"/>
      </g>
    </g>
    <g transform="matrix(1, 0, 0, 1, 119.75, 114.11)" filter="url(#Ellipse_11)">
      <circle id="Ellipse_11-2" data-name="Ellipse 11" cx="24.5" cy="24.5" r="24.5" transform="translate(200.25 31.89)" fill="url(#linear-gradient)"/>
    </g>
    <g transform="matrix(1, 0, 0, 1, 119.75, 114.11)" filter="url(#Ellipse_12)">
      <ellipse id="Ellipse_12-2" data-name="Ellipse 12" cx="39" cy="39.5" rx="39" ry="39.5" transform="translate(537.25 384.89)" fill="url(#linear-gradient-3)"/>
    </g>
    <g id="Group_3" data-name="Group 3" transform="translate(718.791 698.966) rotate(172)">
      <g id="Group_1-2" data-name="Group 1" transform="translate(0 0)">
        <g id="Ellipse_10-2" data-name="Ellipse 10" fill="none" stroke="#5edafb" stroke-width="1">
          <ellipse cx="109.229" cy="109.81" rx="109.229" ry="109.81" stroke="none"/>
          <ellipse cx="109.229" cy="109.81" rx="108.729" ry="109.31" fill="none"/>
        </g>
      </g>
      <g id="Ellipse_9-2" data-name="Ellipse 9" transform="translate(11.62 5.81)" fill="none" stroke="#5edafb" stroke-width="1">
        <ellipse cx="103.419" cy="104" rx="103.419" ry="104" stroke="none"/>
        <ellipse cx="103.419" cy="104" rx="102.919" ry="103.5" fill="none"/>
      </g>
      <g id="Ellipse_8-2" data-name="Ellipse 8" transform="translate(26.726 13.944)" fill="none" stroke="#5edafb" stroke-width="1">
        <ellipse cx="95.866" cy="95.866" rx="95.866" ry="95.866" stroke="none"/>
        <ellipse cx="95.866" cy="95.866" rx="95.366" ry="95.366" fill="none"/>
      </g>
      <g id="Ellipse_7-2" data-name="Ellipse 7" transform="translate(39.508 19.754)" fill="none" stroke="#5edafb" stroke-width="1">
        <ellipse cx="89.475" cy="90.056" rx="89.475" ry="90.056" stroke="none"/>
        <ellipse cx="89.475" cy="90.056" rx="88.975" ry="89.556" fill="none"/>
      </g>
      <g id="Ellipse_6-2" data-name="Ellipse 6" transform="translate(59.263 30.212)" fill="none" stroke="#5edafb" stroke-width="1">
        <ellipse cx="79.598" cy="79.598" rx="79.598" ry="79.598" stroke="none"/>
        <ellipse cx="79.598" cy="79.598" rx="79.098" ry="79.098" fill="none"/>
      </g>
      <g id="Ellipse_5-2" data-name="Ellipse 5" transform="translate(80.179 40.67)" fill="none" stroke="#5edafb" stroke-width="1">
        <ellipse cx="69.14" cy="69.14" rx="69.14" ry="69.14" stroke="none"/>
        <ellipse cx="69.14" cy="69.14" rx="68.64" ry="68.64" fill="none"/>
      </g>
      <g id="Ellipse_4-2" data-name="Ellipse 4" transform="translate(104.581 49.967)" fill="none" stroke="#5edafb" stroke-width="1">
        <ellipse cx="56.939" cy="56.939" rx="56.939" ry="56.939" stroke="none"/>
        <ellipse cx="56.939" cy="56.939" rx="56.439" ry="56.439" fill="none"/>
      </g>
      <g id="Ellipse_3-2" data-name="Ellipse 3" transform="translate(123.173 59.263)" fill="none" stroke="#5edafb" stroke-width="1">
        <ellipse cx="47.643" cy="47.643" rx="47.643" ry="47.643" stroke="none"/>
        <ellipse cx="47.643" cy="47.643" rx="47.143" ry="47.143" fill="none"/>
      </g>
    </g>
    <g id="Group_4" data-name="Group 4" transform="translate(326.454 359.13)">
      <text id="JalanKuy" transform="translate(-0.454 78.87)" fill="#fff" font-size="83" font-family="Natural"><tspan x="0" y="0">JalanKuy</tspan></text>
      <g id="Rectangle_1" data-name="Rectangle 1" transform="translate(175.402 88.367) rotate(90)" fill="#fff" stroke="#fff" stroke-width="1">
        <rect width="4.441" height="95.028" rx="2.22" stroke="none"/>
        <rect x="0.5" y="0.5" width="3.441" height="94.028" rx="1.72" fill="none"/>
      </g>
    </g>
    <g id="humaaans_standing-6" data-name="humaaans/standing-6" transform="translate(126.472 121.655)">
      <g id="humaaan-3" transform="translate(0 0)">
        <g id="Symbols" transform="translate(84.815)">
          <g id="Head_Front_Short-2" data-name="Head/Front/Short-2" transform="translate(0)">
            <g id="Head" transform="translate(4.618 8.082)">
              <path id="Path_11" data-name="Path 11" d="M9.539,39.821C4.219,33.576.618,25.923,1.22,17.348,2.954-7.36,37.348-1.925,44.038,10.546s5.9,44.1-2.751,46.332c-3.448.889-10.794-1.288-18.271-5.795l4.693,33.2H0Z" transform="translate(0 0)" fill="#efc8a4" fill-rule="evenodd"/>
            </g>
            <path id="Hair" d="M62.028,77.464C58.55,61.992,48.643,51.445,50.156,44.53q1.513-6.915,8.066-8.6,3.389-13.71,21.861-11.663c18.472,2.047,29.745,9.718,24.877,26.6-4.476,0-9.878-1.619-17.349,1.155q-3.556,1.32-5.086,8.186H79.148q-4.915-8.148-9.692-5.988T67.283,64.708L65.62,77.464Z" transform="translate(-50 -24)" fill="#191847" fill-rule="evenodd"/>
          </g>
        </g>
        <g id="Bottom_Standing_Sprint" data-name="Bottom/Standing/Sprint" transform="translate(0 130.544)">
          <path id="Leg" d="M88.154,0C71.925,13.239,78.32,129.58,77.238,131.043q-.722.975-77.238,16.476l2.219,9.008q89.53-4.286,94.736-10.932,7.454-9.514,18.275-106.538Z" transform="matrix(0.574, -0.819, 0.819, 0.574, 27.519, 95.886)" fill="#efc8a4" fill-rule="evenodd"/>
          <path id="Pant" d="M0,144l3.906,14.508c44.505,5.2,73.827-1.082,84.134-10.9Q98.347,137.8,106.363,41.365L77.4,0C38.764,29.156,62,124.871,61.014,127.058S36.567,130.934,0,144Z" transform="matrix(0.574, -0.819, 0.819, 0.574, 32.675, 87.127)" fill="#2f3676" fill-rule="evenodd"/>
          <g id="Accessories_Shoe_Flat-Sneaker" data-name="Accessories/Shoe/Flat-Sneaker" transform="matrix(0.94, 0.342, -0.342, 0.94, 145.579, 173.553)">
            <path id="shoe" d="M1.43,5.172A18.294,18.294,0,0,0,0,10.883a42.753,42.753,0,0,0,.768,6.726H48.823q1.873-6.193-2.163-6.686t-6.705-.892L17.62.074a.852.852,0,0,0-1.125.431l-.01.022L15.049,4.01A15.322,15.322,0,0,1,8.977,5.753,13.75,13.75,0,0,1,3.736,4.22h0a1.7,1.7,0,0,0-2.259.839Q1.451,5.115,1.43,5.172Z" transform="translate(0 0)" fill="#e4e4e4" fill-rule="evenodd"/>
          </g>
          <path id="Leg-2" data-name="Leg" d="M117.1,0,73.008,105.434,29.676,194.57H39.9L151.75,0Z" transform="translate(-27.635 23.674)" fill="#efc8a4" fill-rule="evenodd"/>
          <g id="Accessories_Shoe_Flat-Sneaker-2" data-name="Accessories/Shoe/Flat-Sneaker" transform="translate(0 209.041)">
            <path id="shoe-2" data-name="shoe" d="M2.513,26.113a18.294,18.294,0,0,0-1.43,5.712,42.753,42.753,0,0,0,.768,6.726H49.906q1.873-6.193-2.163-6.686t-6.705-.892L18.7,21.015a.852.852,0,0,0-1.125.431l-.01.022-1.436,3.483a15.322,15.322,0,0,1-6.072,1.743,13.75,13.75,0,0,1-5.242-1.533h0A1.7,1.7,0,0,0,2.56,26Q2.534,26.055,2.513,26.113Z" transform="translate(-1.083 -20.941)" fill="#e4e4e4" fill-rule="evenodd"/>
          </g>
          <path id="Pant-2" data-name="Pant" d="M34.651,176.053,57.367,180.3C74.932,154.573,148.439,49.1,156.5,0H105.926C79.012,35.494,51.393,149.9,34.651,176.053Z" transform="translate(-28.696 23.674)" fill="#5c63ab" fill-rule="evenodd"/>
        </g>
        <g id="Body_Hoodie" data-name="Body/Hoodie" transform="translate(27.343 63.37) rotate(1)">
          <path id="Skin" d="M133.441,0l27.178,19.859a73.352,73.352,0,0,1,18.475,7.387c1.169,1.059,2.581,3.2-2.265,2.833s-9.958-.543-10.626,1.1,2.264,3.61.912,5.829q-1.352,2.219-12.769-11.127L127.432,14.778ZM29.092.685l17.8.07q-16.49,52.972-17.8,56.212c-1.971,4.862,2.2,12.266,3.985,16.245-5.811,2.588-5.192-6.994-12.522-3.6-6.691,3.1-11.78,8.709-19.51,3.963-.95-.584-1.992-2.78.524-4.5C7.838,64.8,16.872,57.315,18.093,54.85Q20.589,49.81,29.092.685Z" transform="translate(0 81.157)" fill="#efc8a4" fill-rule="evenodd"/>
          <path id="Coat-Back" d="M0,1.895,7.23,0c29.279,21.026,44.4,65.017,79.862,85.919L79.925,96.531C21.394,94.463,2.242,40.866,0,1.895Z" transform="translate(79.855 5.612) rotate(5)" fill="#ffc421" fill-rule="evenodd"/>
          <path id="Shirt" d="M0,96.651H65.188c2.979,0,2.418-4.28,1.987-6.439-4.969-24.926-24.369-51.8-24.369-87.277L24,0C8.45,24.891,3.071,55.536,0,96.651Z" transform="translate(47.574 2.979)" fill="#dde3e9" fill-rule="evenodd"/>
          <path id="Coat-Front" d="M30.458,27.445a10.74,10.74,0,0,1-6.488-5.466C17.1,9.639,19.579,2.845,26.924.612s13.895,2.367,25.6,2.367A11.834,11.834,0,0,1,54.27,3.1l5.887.334q25.333,85.435,13.973,114H22.821a173.714,173.714,0,0,1-8.727,17.8H.114Q-1.86,71.737,30.458,27.445Z" transform="translate(17.64 0)" fill="#ffc421" fill-rule="evenodd"/>
          <path id="Shade" d="M11.173,0q2.42,20.153,7.868,29.252H0Q5.319,16.91,11.173,0Z" transform="translate(40.461 88.182)" fill="rgba(0,0,0,0.1)" fill-rule="evenodd"/>
        </g>
      </g>
    </g>
  </g>
</svg>
