<svg xmlns="http://www.w3.org/2000/svg" width="421.375" height="323.762" viewBox="0 0 421.375 323.762">
  <g id="Path_2" data-name="Path 2" transform="matrix(1, 0.017, -0.017, 1, 5.525, 0)" fill="#65cde8" opacity="0.25">
    <path d="M 207.9566802978516 316.0515441894531 C 193.87646484375 316.0515441894531 179.8052520751953 314.814453125 166.1340026855469 312.3746032714844 C 152.8109436035156 309.9969177246094 139.7061004638672 306.4491882324219 127.1835784912109 301.8298645019531 C 114.8892593383789 297.2947082519531 103.0315780639648 291.6816101074219 91.93994140625 285.1463928222656 C 80.95473480224609 278.6739196777344 70.62504577636719 271.240966796875 61.23773193359375 263.0540161132813 C 51.85168075561523 254.8681793212891 43.33052062988281 245.8611297607422 35.91099548339844 236.2830657958984 C 28.42147064208984 226.6147003173828 21.98894309997559 216.2791290283203 16.79215431213379 205.5635986328125 C 11.49994373321533 194.6513824462891 7.435522556304932 183.2322845458984 4.711732864379883 171.6234436035156 C 1.917048692703247 159.7124938964844 0.4999960958957672 147.4532318115234 0.4999960958957672 135.1862335205078 C 0.4999960958957672 120.9906997680664 1.489469766616821 107.3831787109375 3.440996170043945 94.74160003662109 C 5.67883825302124 80.24501800537109 9.183048248291016 67.07959747314453 13.8562593460083 55.61112594604492 C 25.02725982666016 28.19643974304199 42.76367950439453 10.42286109924316 66.57278442382813 2.784124135971069 C 71.29683685302734 1.268492579460144 76.11478424072266 0.500018835067749 80.89278411865234 0.500018835067749 C 86.19831085205078 0.500018835067749 91.48030853271484 1.400703072547913 97.04057312011719 3.253597736358643 C 102.0146789550781 4.911176681518555 107.1061553955078 7.301018714904785 112.6058883666992 10.55970287322998 C 122.8602600097656 16.63565063476563 133.1017913818359 24.95828247070313 143.0061492919922 33.00686264038086 C 164.0969390869141 50.14591217041016 185.9057922363281 67.86849212646484 211.3793182373047 67.86849212646484 C 237.391357421875 67.86849212646484 258.3372192382813 49.96649169921875 278.5934143066406 32.65386199951172 C 288.1776428222656 24.46244049072266 297.2303161621094 16.72522926330566 306.7232666015625 10.84675598144531 C 311.8092651367188 7.697281837463379 316.5342102050781 5.388702869415283 321.1680908203125 3.78917670249939 C 326.3414306640625 2.003439903259277 331.2837829589844 1.135387301445007 336.2775268554688 1.135387301445007 C 340.8725891113281 1.135387301445007 345.5350952148438 1.908808350563049 350.1355285644531 3.434176683425903 C 356.3115844726563 5.481966018676758 362.1606140136719 8.293755531311035 367.5201416015625 11.7913875579834 C 372.6251525878906 15.1228609085083 377.4138488769531 19.15980911254883 381.7532043457031 23.79001808166504 C 389.799560546875 32.37570190429688 396.5495300292969 43.24243927001953 401.8155822753906 56.08838653564453 C 406.5184631347656 67.560546875 410.0651550292969 80.65744018554688 412.3570556640625 95.01522827148438 C 414.3851013183594 107.7196502685547 415.4133605957031 121.2351226806641 415.4133605957031 135.1862335205078 C 415.4133605957031 147.4532318115234 413.9963073730469 159.7124938964844 411.2016296386719 171.6234436035156 C 408.4778442382813 183.2322845458984 404.4134216308594 194.6513824462891 399.1212158203125 205.5635986328125 C 393.9244079589844 216.2791290283203 387.4918823242188 226.6146545410156 380.0023498535156 236.2830657958984 C 372.5828247070313 245.8611297607422 364.0616760253906 254.8681793212891 354.6756286621094 263.0540161132813 C 345.2882995605469 271.240966796875 334.9585876464844 278.6739196777344 323.9734191894531 285.1463928222656 C 312.8817749023438 291.6816101074219 301.0241088867188 297.2947082519531 288.729736328125 301.8298645019531 C 276.2072143554688 306.4491882324219 263.1024169921875 309.9969177246094 249.7793579101563 312.3746032714844 C 236.1080474853516 314.814453125 222.0368957519531 316.0515441894531 207.9566802978516 316.0515441894531 Z" stroke="none"/>
    <path d="M 207.9566802978516 315.5515441894531 C 222.0075225830078 315.5515441894531 236.0491485595703 314.3170776367188 249.6915283203125 311.8823852539063 C 262.9856262207031 309.5098571777344 276.0617980957031 305.9699096679688 288.5566711425781 301.3607482910156 C 300.8230895996094 296.8359069824219 312.6536254882813 291.2357177734375 323.7195739746094 284.7156066894531 C 334.6783142089844 278.2587585449219 344.9828491210938 270.8439636230469 354.3469543457031 262.6772155761719 C 363.7086181640625 254.5126037597656 372.2073669433594 245.5293273925781 379.6070556640625 235.9769134521484 C 387.0754699707031 226.3358154296875 393.4895629882813 216.0298614501953 398.6713256835938 205.3453826904297 C 403.9474182128906 194.4663391113281 407.9994812011719 183.0822296142578 410.71484375 171.5092315673828 C 413.5007934570313 159.6356506347656 414.9133605957031 147.4148101806641 414.9133605957031 135.1862335205078 C 414.9133605957031 121.2614364624023 413.88720703125 107.7724914550781 411.8633117675781 95.09401702880859 C 409.5774841308594 80.77423095703125 406.041259765625 67.71465301513672 401.3529357910156 56.27801895141602 C 396.1100463867188 43.48854446411133 389.3930053710938 32.67307281494141 381.388427734375 24.13191413879395 C 377.0763244628906 19.53086090087891 372.3184814453125 15.51975536346436 367.2469482421875 12.21012401580811 C 361.9234313964844 8.736019134521484 356.1133728027344 5.943018913269043 349.9781494140625 3.908755779266357 C 345.4285888671875 2.40028190612793 340.8190612792969 1.635387301445007 336.2775268554688 1.635387301445007 C 331.3402099609375 1.635387301445007 326.4512023925781 2.494492530822754 321.3312683105469 4.261808395385742 C 316.7327880859375 5.849123954772949 312.0405883789063 8.142124176025391 306.9864807128906 11.27186107635498 C 297.5260925292969 17.13017654418945 288.4875183105469 24.85528182983398 278.9182739257813 33.03396606445313 C 258.5931091308594 50.40549087524414 237.5759429931641 68.36849212646484 211.3793182373047 68.36849212646484 C 185.7282562255859 68.36849212646484 163.849365234375 50.58901977539063 142.6908416748047 33.39491271972656 C 132.8005676269531 25.35775566101074 122.5735778808594 17.04701805114746 112.3509979248047 10.98991394042969 C 106.8822555541992 7.749545097351074 101.8224716186523 5.374176979064941 96.88252258300781 3.72796630859375 C 91.37399291992188 1.892334580421448 86.14373016357422 1.000018835067749 80.89278411865234 1.000018835067749 C 76.16673278808594 1.000018835067749 71.40015411376953 1.760439872741699 66.72552490234375 3.260229349136353 C 43.06389236450195 10.85165023803711 25.4318904876709 28.52854537963867 14.31925964355469 55.79980850219727 C 9.660785675048828 67.232177734375 6.167048931121826 80.35975646972656 3.935101270675659 94.81791687011719 C 1.98752236366272 107.4342803955078 0.9999960660934448 121.0161743164063 0.9999960660934448 135.1862335205078 C 0.9999960660934448 147.4148101806641 2.412575006484985 159.6356506347656 5.198522567749023 171.5092315673828 C 7.913890838623047 183.0822296142578 11.96594333648682 194.4663391113281 17.2420482635498 205.3453826904297 C 22.42378616333008 216.0298614501953 28.837890625 226.3358154296875 36.30625915527344 235.9769134521484 C 43.70599746704102 245.5293273925781 52.20468139648438 254.5126037597656 61.56636428833008 262.6772155761719 C 70.93051910400391 270.8439636230469 81.23504638671875 278.2587585449219 92.19373321533203 284.7156066894531 C 103.2597351074219 291.2357177734375 115.0902099609375 296.8359069824219 127.3566284179688 301.3607482910156 C 139.8515777587891 305.9699096679688 152.927734375 309.5098571777344 166.2218322753906 311.8823852539063 C 179.8642120361328 314.3170776367188 193.9058380126953 315.5515441894531 207.9566802978516 315.5515441894531 M 207.9566802978516 316.5515441894531 C 93.10536193847656 316.5515441894531 -3.912674856110243e-06 235.3514862060547 -3.912674856110243e-06 135.1862335205078 C -3.912674856110243e-06 82.69938659667969 13.5752067565918 19.2624397277832 66.42005157470703 2.308018922805786 C 71.37102508544922 0.7195767164230347 76.18533325195313 2.814041863530292e-06 80.89279937744141 2.814041863530292e-06 C 126.431037902832 2.814041863530292e-06 161.8322906494141 67.36849212646484 211.3793182373047 67.36849212646484 C 261.3096313476563 67.36849212646484 292.7930603027344 0.6353862285614014 336.2775268554688 0.6353862285614014 C 340.8050231933594 0.6353862285614014 345.4710388183594 1.360807538032532 350.2928771972656 2.959597826004028 C 401.4264221191406 19.91401863098145 415.9133605957031 83.10060119628906 415.9133605957031 135.1862335205078 C 415.9133605957031 235.3514862060547 322.8079528808594 316.5515441894531 207.9566802978516 316.5515441894531 Z" stroke="none" fill="#65cde8"/>
  </g>
</svg>
