<svg xmlns="http://www.w3.org/2000/svg" width="117.167" height="110.411" viewBox="0 0 117.167 110.411">
  <g id="Group_140" data-name="Group 140" transform="translate(0 -0.001)">
    <g id="Subtraction_5" data-name="Subtraction 5" transform="translate(5104 -355)" fill="#65cde8" opacity="0.25">
      <path d="M -5036.072265625 464.9114990234375 L -5036.07373046875 464.9114990234375 C -5048.2197265625 464.9101867675781 -5061.994140625 462.5552368164063 -5077.013671875 457.9120483398438 C -5085.60205078125 455.2570495605469 -5094.51123046875 451.8845520019531 -5103.49951171875 447.8864135742188 L -5103.49951171875 355.5006408691406 L -5005.12158203125 355.5006408691406 C -5005.70849609375 368.4024658203125 -5000.7265625 382.6150512695313 -4995.90673828125 396.365966796875 C -4992.02734375 407.4380493164063 -4988.36279296875 417.8955993652344 -4987.513671875 427.4676208496094 C -4987.06005859375 432.5746765136719 -4987.45703125 436.9432983398438 -4988.72607421875 440.8232116699219 C -4990.140625 445.1503295898438 -4992.60302734375 448.7914123535156 -4996.25439453125 451.9547119140625 C -5001.3818359375 456.3953857421875 -5007.49365234375 459.7386474609375 -5014.42041015625 461.8916015625 C -5020.8681640625 463.8954467773438 -5028.15283203125 464.9114990234375 -5036.072265625 464.9114990234375 Z" stroke="none"/>
      <path d="M -5036.072265625 464.4114990234375 C -5028.20361328125 464.4114990234375 -5020.96875 463.4030456542969 -5014.56884765625 461.4141235351563 C -5007.70849609375 459.2817687988281 -5001.65673828125 455.9719848632813 -4996.58154296875 451.5768127441406 C -4993.0009765625 448.474609375 -4990.5869140625 444.9062805175781 -4989.201171875 440.667724609375 C -4987.95361328125 436.8534240722656 -4987.564453125 432.5501098632813 -4988.01171875 427.5117797851563 C -4988.85498046875 418.0020141601563 -4992.509765625 407.5730590820313 -4996.37890625 396.5313720703125 C -5001.14990234375 382.919921875 -5006.07861328125 368.858154296875 -5005.64208984375 356.0006408691406 L -5102.99951171875 356.0006408691406 L -5102.99951171875 447.5613708496094 C -5094.1298828125 451.4937744140625 -5085.3408203125 454.8144226074219 -5076.86572265625 457.4343566894531 C -5061.89404296875 462.062744140625 -5048.16943359375 464.4102172851563 -5036.07373046875 464.4114990234375 L -5036.072265625 464.4114990234375 M -5036.072265625 465.4114990234375 L -5036.07373046875 465.4114990234375 C -5048.27001953125 465.4101867675781 -5062.09375 463.0477294921875 -5077.1611328125 458.3897399902344 C -5085.86279296875 455.69970703125 -5094.892578125 452.2750854492188 -5103.99951171875 448.2110290527344 L -5103.99951171875 355.0006408691406 L -5004.59521484375 355.0006408691406 C -5005.33984375 367.9418640136719 -5000.3046875 382.3077087402344 -4995.43505859375 396.2005920410156 C -4991.54443359375 407.3035278320313 -4987.8701171875 417.7890625 -4987.015625 427.4234313964844 C -4986.55615234375 432.5985107421875 -4986.9599609375 437.032470703125 -4988.2509765625 440.9786682128906 C -4989.6943359375 445.394287109375 -4992.205078125 449.1081848144531 -4995.9267578125 452.3326110839844 C -5001.10693359375 456.81884765625 -5007.279296875 460.1955871582031 -5014.27197265625 462.3690490722656 C -5020.76806640625 464.3878784179688 -5028.1025390625 465.4114990234375 -5036.072265625 465.4114990234375 Z" stroke="none" fill="#65cde8"/>
    </g>
    <g id="Group_7" data-name="Group 7" transform="translate(-14)">
      <path id="Polygon_1" data-name="Polygon 1" d="M26,0,52,45H0Z" transform="translate(38 32)" fill="#fff"/>
      <path id="Polygon_2" data-name="Polygon 2" d="M26,0,52,55H0Z" transform="translate(55 22)" fill="#fff"/>
    </g>
  </g>
</svg>
