<svg xmlns="http://www.w3.org/2000/svg" width="574.694" height="84.335" viewBox="0 0 574.694 84.335">
  <g id="Subtraction_3" data-name="Subtraction 3" transform="translate(5287 -197.001)" fill="#65cde8" opacity="0.25">
    <path d="M -4974.4248046875 280.8359680175781 L -4974.43017578125 280.8359680175781 L -4974.43798828125 280.8359680175781 C -4986.68115234375 280.8359680175781 -4999.17529296875 280.5072021484375 -5011.5732421875 279.8586730957031 C -5039.443359375 278.3971252441406 -5067.09423828125 275.3084106445313 -5093.75830078125 270.6782531738281 C -5119.67041015625 266.1792602539063 -5144.8115234375 260.198974609375 -5168.4833984375 252.9036865234375 C -5191.7265625 245.7402648925781 -5213.61376953125 237.2904052734375 -5233.53662109375 227.7888946533203 C -5252.80859375 218.5992126464844 -5270.2685546875 208.4130859375 -5285.455078125 197.5006103515625 L -4712.80615234375 197.5006103515625 L -4712.80615234375 215.4597320556641 C -4720.88818359375 221.0127563476563 -4729.77392578125 226.3445892333984 -4739.22021484375 231.3097534179688 C -4758.810546875 241.6077575683594 -4781.13916015625 250.5427551269531 -4805.58740234375 257.8663940429688 C -4830.302734375 265.2710571289063 -4857.04931640625 270.9869079589844 -4885.083984375 274.8551025390625 C -4913.85009765625 278.8236999511719 -4943.90869140625 280.8359680175781 -4974.4248046875 280.8359680175781 Z" stroke="none"/>
    <path d="M -4974.4248046875 280.3359680175781 C -4943.931640625 280.3359680175781 -4913.89599609375 278.3252563476563 -4885.15234375 274.3597717285156 C -4857.14306640625 270.4950561523438 -4830.421875 264.7847595214844 -4805.73095703125 257.3874816894531 C -4781.3134765625 250.0729675292969 -4759.0146484375 241.1502532958984 -4739.453125 230.8671875 C -4730.10791015625 225.9554138183594 -4721.314453125 220.6849822998047 -4713.30615234375 215.1964721679688 L -4713.30615234375 198.0006103515625 L -5283.89501953125 198.0006103515625 C -5269.0302734375 208.5544281005859 -5252.033203125 218.4151153564453 -5233.3212890625 227.3375396728516 C -5213.42041015625 236.8286895751953 -5191.55615234375 245.2696228027344 -5168.33642578125 252.4259033203125 C -5144.68408203125 259.7149658203125 -5119.56396484375 265.690185546875 -5093.6728515625 270.1856079101563 C -5067.0283203125 274.8123168945313 -5039.39697265625 277.8988342285156 -5011.54736328125 279.3593444824219 C -4999.158203125 280.0074157714844 -4986.67236328125 280.3359680175781 -4974.43798828125 280.3359680175781 L -4974.43017578125 280.3359680175781 L -4974.4248046875 280.3359680175781 M -4974.4248046875 281.3359680175781 L -4974.43017578125 281.3359680175781 L -4974.43798828125 281.3359680175781 C -4986.6904296875 281.3359680175781 -4999.193359375 281.0068969726563 -5011.599609375 280.3579711914063 C -5039.48876953125 278.8954162597656 -5067.15966796875 275.8044738769531 -5093.84375 271.1708984375 C -5119.7763671875 266.6682739257813 -5144.9384765625 260.6830444335938 -5168.630859375 253.3815460205078 C -5191.89794921875 246.210693359375 -5213.8076171875 237.7519073486328 -5233.751953125 228.2401885986328 C -5253.58349609375 218.7837524414063 -5271.4990234375 208.2731170654297 -5287.00048828125 197.0006103515625 L -4712.30615234375 197.0006103515625 L -4712.30615234375 215.7226867675781 C -4720.462890625 221.3408355712891 -4729.439453125 226.7336883544922 -4738.98779296875 231.7523345947266 C -4758.60693359375 242.0656890869141 -4780.96630859375 251.0128326416016 -4805.44384765625 258.3453979492188 C -4830.18359375 265.75732421875 -4856.955078125 271.4786071777344 -4885.015625 275.3504028320313 C -4913.80419921875 279.3221130371094 -4943.88623046875 281.3359680175781 -4974.4248046875 281.3359680175781 Z" stroke="none" fill="#65cde8"/>
  </g>
</svg>
