<svg xmlns="http://www.w3.org/2000/svg" xmlns:xlink="http://www.w3.org/1999/xlink" width="483.791" height="618.113" viewBox="0 0 483.791 618.113">
  <defs>
    <radialGradient id="radial-gradient" cx="0.5" cy="0.5" r="0.5" gradientUnits="objectBoundingBox">
      <stop offset="0" stop-color="#7cb3f8"/>
      <stop offset="1" stop-color="#2c59a8"/>
    </radialGradient>
  </defs>
  <g id="Group_14" data-name="Group 14" transform="translate(0 0)">
    <g id="Path_3" data-name="Path 3" transform="matrix(-0.755, -0.656, 0.656, -0.755, 302.58, 430.436)" fill="#ffc421">
      <path d="M 185.5872192382813 247.1760864257813 C 173.0211791992188 247.1760864257813 160.4632263183594 246.2081298828125 148.2622222900391 244.2991180419922 C 136.372314453125 242.4387664794922 124.6773529052734 239.6629943847656 113.5021743774414 236.0488586425781 C 102.5313110351563 232.5007629394531 91.95030975341797 228.1094818115234 82.05313110351563 222.9969024658203 C 72.25194549560547 217.9339447021484 63.0359001159668 212.1199035644531 54.66094589233398 205.7162170410156 C 46.28844451904297 199.3144378662109 38.68776321411133 192.2708129882813 32.07008361816406 184.7809906005859 C 25.39140129089355 177.2221221923828 19.65553665161133 169.1422119140625 15.02190113067627 160.7656707763672 C 10.3043098449707 152.2373504638672 6.681309700012207 143.3134002685547 4.253491878509521 134.2416229248047 C 1.762855291366577 124.935173034668 0.4999916553497314 115.3567123413086 0.4999916553497314 105.7723541259766 C 0.4999916553497314 94.67457580566406 1.382264375686646 84.03684997558594 3.122264385223389 74.15471649169922 C 5.117173671722412 62.82498931884766 8.240628242492676 52.53630447387695 12.40594577789307 43.57439804077148 C 22.36321830749512 22.15066909790039 38.17794799804688 8.259624481201172 59.41080856323242 2.287169933319092 C 63.6267204284668 1.101306200027466 67.92671966552734 0.5000334978103638 72.19135284423828 0.5000334978103638 C 76.92671966552734 0.5000334978103638 81.64080810546875 1.204760789871216 86.60298919677734 2.654488086700439 C 91.04094696044922 3.95107889175415 95.58344268798828 5.82039737701416 100.4900360107422 8.369306564331055 C 109.6386260986328 13.12180614471436 118.7770385742188 19.63248825073242 127.6145401000977 25.92885208129883 C 146.4402160644531 39.34130477905273 165.9068603515625 53.21044158935547 188.6416778564453 53.21044158935547 C 211.8575439453125 53.21044158935547 230.5543518066406 39.20048904418945 248.6355895996094 25.65180587768555 C 257.1871643066406 19.243896484375 265.2645263671875 13.19135189056396 273.7332763671875 8.593533515930176 C 278.2704467773438 6.130260944366455 282.4857177734375 4.324624538421631 286.6199035644531 3.073487997055054 C 291.2367248535156 1.6763516664505 295.6476745605469 0.9971698522567749 300.1048583984375 0.9971698522567749 C 304.2061767578125 0.9971698522567749 308.367431640625 1.602306246757507 312.4730224609375 2.795806169509888 C 317.9833068847656 4.397624492645264 323.2013854980469 6.596760749816895 327.9823608398438 9.332215309143066 C 332.5344543457031 11.93667030334473 336.8041381835938 15.09230613708496 340.6728210449219 18.71139717102051 C 347.8440856933594 25.42012405395508 353.85986328125 33.91094207763672 358.552978515625 43.94803237915039 C 362.7448120117188 52.91307830810547 365.9062194824219 63.14839553833008 367.9493103027344 74.36966705322266 C 369.7575378417969 84.30075836181641 370.6743469238281 94.86612701416016 370.6743469238281 105.7723541259766 C 370.6743469238281 115.3567123413086 369.4114990234375 124.935173034668 366.9208984375 134.2416229248047 C 364.4930725097656 143.3134002685547 360.8700256347656 152.2373504638672 356.1524963378906 160.7656707763672 C 351.518798828125 169.1422119140625 345.7829895019531 177.2221221923828 339.1042785644531 184.7809906005859 C 332.486572265625 192.2708129882813 324.8859558105469 199.3144378662109 316.5134582519531 205.7162170410156 C 308.1384887695313 212.1199035644531 298.9223937988281 217.9339447021484 289.1212768554688 222.9969024658203 C 279.2240905761719 228.1094818115234 268.6430969238281 232.5007629394531 257.6722106933594 236.0488586425781 C 246.4970397949219 239.6629943847656 234.8020782470703 242.4387664794922 222.9122161865234 244.2991180419922 C 210.7112121582031 246.2081298828125 198.1532592773438 247.1760864257813 185.5872192382813 247.1760864257813 Z" stroke="none"/>
      <path d="M 185.5872192382813 246.6760711669922 C 198.1274719238281 246.6760711669922 210.659423828125 245.7101135253906 222.8349304199219 243.8051147460938 C 234.6989288330078 241.9488220214844 246.3681182861328 239.1791687011719 257.5183715820313 235.5730590820313 C 268.4632873535156 232.0334167480469 279.0188293457031 227.6527099609375 288.8917846679688 222.5526580810547 C 298.6669311523438 217.5031127929688 307.8580322265625 211.7049102783203 316.209716796875 205.3190155029297 C 324.5565185546875 198.9368591308594 332.1333312988281 191.9154663085938 338.7296142578125 184.4499206542969 C 345.3842163085938 176.9183197021484 351.0989379882813 168.8683166503906 355.7149658203125 160.5236206054688 C 360.4128723144531 152.0308685302734 364.0205688476563 143.1448669433594 366.4378662109375 134.1123199462891 C 368.917236328125 124.848014831543 370.1743774414063 115.3130645751953 370.1743774414063 105.7723159790039 C 370.1743774414063 94.89606475830078 369.2602844238281 84.36081695556641 367.4574279785156 74.45921325683594 C 365.4220275878906 63.28016662597656 362.2737121582031 53.08596420288086 358.1000671386719 44.15981674194336 C 353.43408203125 34.18071365356445 347.4557800292969 25.74146461486816 340.3312377929688 19.07656478881836 C 336.4908142089844 15.48386573791504 332.2525329589844 12.35141563415527 327.7340087890625 9.766165733337402 C 322.9873352050781 7.050365447998047 317.8058166503906 4.866715431213379 312.3334655761719 3.275915384292603 C 308.2731628417969 2.095615386962891 304.1588745117188 1.497165322303772 300.1048583984375 1.497165322303772 C 295.697509765625 1.497165322303772 291.3339233398438 2.169315338134766 286.7647705078125 3.552065372467041 C 282.6634826660156 4.793265342712402 278.4788818359375 6.586065292358398 273.9718627929688 9.032965660095215 C 265.5351867675781 13.61336517333984 257.4720153808594 19.65526580810547 248.9354248046875 26.05191612243652 C 230.7886810302734 39.64971542358398 212.0240783691406 53.71041488647461 188.6416778564453 53.71041488647461 C 165.7469177246094 53.71041488647461 146.2141265869141 39.79416656494141 127.3244247436523 26.3360652923584 C 118.0948257446289 19.7603645324707 109.3770751953125 13.54936504364014 100.2595748901367 8.813014984130859 C 95.38217163085938 6.279265403747559 90.86917114257813 4.421815395355225 86.46277618408203 3.1344153881073 C 81.54682159423828 1.69816529750824 76.87857055664063 1.000015377998352 72.19132232666016 1.000015377998352 C 67.97241973876953 1.000015377998352 63.71797180175781 1.595015287399292 59.54617309570313 2.768515348434448 C 38.46012496948242 8.699665069580078 22.7524242401123 22.49966621398926 12.85937309265137 43.78511428833008 C 8.712423324584961 52.70756530761719 5.602073669433594 62.95451354980469 3.614723443984985 74.24141693115234 C 1.879723429679871 84.09501647949219 1.000023484230042 94.70351409912109 1.000023484230042 105.7723159790039 C 1.000023484230042 115.3130645751953 2.257173538208008 124.848014831543 4.736523628234863 134.1123199462891 C 7.153823375701904 143.1448669433594 10.76152324676514 152.0308685302734 15.45942306518555 160.5236206054688 C 20.07547378540039 168.8683166503906 25.7901725769043 176.9183197021484 32.44477462768555 184.4499206542969 C 39.04107284545898 191.9154663085938 46.61782455444336 198.9368591308594 54.96467208862305 205.3190155029297 C 63.31637191772461 211.7049102783203 72.50742340087891 217.5031127929688 82.28256988525391 222.5526580810547 C 92.15557098388672 227.6527099609375 102.7111206054688 232.0334167480469 113.6560211181641 235.5730590820313 C 124.8062744140625 239.1791687011719 136.4755249023438 241.9488220214844 148.3395233154297 243.8051147460938 C 160.5150299072266 245.7101135253906 173.0469665527344 246.6760711669922 185.5872192382813 246.6760711669922 M 185.5872192382813 247.6760711669922 C 83.09022521972656 247.6760711669922 2.346191467950121e-05 184.1435699462891 2.346191467950121e-05 105.7723159790039 C 2.346191467950121e-05 64.70561218261719 12.1149730682373 15.07131576538086 59.27537536621094 1.805865287780762 C 63.69378280639648 0.5630343556404114 67.99024963378906 2.080078047583811e-05 72.19134521484375 2.080078047583811e-05 C 112.8311004638672 2.080078047583811e-05 144.4243011474609 52.71041488647461 188.6416778564453 52.71041488647461 C 233.2011108398438 52.71041488647461 261.2978820800781 0.4971608519554138 300.1048583984375 0.4971608519554138 C 304.1453552246094 0.4971608519554138 308.3094482421875 1.06474244594574 312.6126098632813 2.315665245056152 C 358.2457885742188 15.58111572265625 371.1743774414063 65.01956176757813 371.1743774414063 105.7723159790039 C 371.1743774414063 184.1435699462891 288.0841369628906 247.6760711669922 185.5872192382813 247.6760711669922 Z" stroke="none" fill="#ffc421"/>
    </g>
    <g id="Path_1" data-name="Path 1" transform="translate(41.675 101.426) rotate(7)" fill="url(#radial-gradient)">
      <path d="M 76.21280670166016 341.4646606445313 C 71.72135925292969 341.4646606445313 67.19180297851563 340.6361389160156 62.75000762939453 339.0021057128906 C 40.32540512084961 330.752685546875 23.61720657348633 311.5492858886719 13.08950614929199 281.9253845214844 C 8.684356689453125 269.52978515625 5.381256580352783 255.3005523681641 3.271856546401978 239.6327514648438 C 1.43260657787323 225.9711456298828 0.5000066161155701 211.2658996582031 0.5000066161155701 195.9254913330078 C 0.5000066161155701 182.6658020019531 1.835806608200073 169.4145965576172 4.470356464385986 156.5399017333984 C 7.037906646728516 143.9926910400391 10.86900615692139 131.6508941650391 15.85730648040771 119.8572463989258 C 20.75510597229004 108.2775955200195 26.81720733642578 97.10894775390625 33.87530517578125 86.66159820556641 C 40.866455078125 76.31334686279297 48.89530563354492 66.58235168457031 57.73880767822266 57.73879623413086 C 66.58235931396484 48.89529800415039 76.3133544921875 40.86644744873047 86.66160583496094 33.87529754638672 C 97.10895538330078 26.81719779968262 108.2776031494141 20.75509834289551 119.8572540283203 15.85729789733887 C 131.6509094238281 10.86899757385254 143.9927062988281 7.037898063659668 156.5399017333984 4.470347881317139 C 169.4146118164063 1.835797905921936 182.6658020019531 0.4999978840351105 195.9255065917969 0.4999978840351105 C 209.1852111816406 0.4999978840351105 222.4364013671875 1.835797905921936 235.3111114501953 4.470347881317139 C 247.8583068847656 7.037898063659668 260.2001037597656 10.86899757385254 271.9937438964844 15.85729789733887 C 283.5733947753906 20.75509834289551 294.7420654296875 26.81719779968262 305.1893920898438 33.87529754638672 C 315.5376586914063 40.86644744873047 325.2686462402344 48.89529800415039 334.1122131347656 57.73879623413086 C 342.9557189941406 66.58235168457031 350.9845581054688 76.31334686279297 357.9757080078125 86.66159820556641 C 365.0338134765625 97.10894775390625 371.0959167480469 108.2775955200195 375.9937133789063 119.8572463989258 C 380.9819946289063 131.6508941650391 384.8131103515625 143.9926910400391 387.3806457519531 156.5399017333984 C 390.0151977539063 169.4145965576172 391.3510131835938 182.6658020019531 391.3510131835938 195.9254913330078 C 391.3510131835938 211.0020446777344 390.3818664550781 225.6080017089844 388.4703979492188 239.3376922607422 C 386.3101196289063 254.8553466796875 382.9669494628906 269.010498046875 378.5339050292969 281.4100036621094 C 373.5699462890625 295.2943420410156 367.2077026367188 307.0390014648438 359.6238098144531 316.3176879882813 C 355.535400390625 321.3197021484375 351.0242004394531 325.6803894042969 346.2155151367188 329.2786560058594 C 341.1693420410156 333.0545349121094 335.6629943847656 336.0897827148438 329.8493041992188 338.3001098632813 C 325.5267028808594 339.9435119628906 321.143798828125 340.7772521972656 316.8223571777344 340.7782592773438 C 316.8197631835938 340.7782592773438 316.816650390625 340.7782592773438 316.8140869140625 340.7782592773438 C 312.1226196289063 340.7783203125 307.4788208007813 339.8430786132813 302.6166076660156 337.919189453125 C 298.2549438476563 336.1933898925781 293.8067626953125 333.7015991210938 289.0178527832031 330.3013916015625 C 280.0752563476563 323.9519348144531 271.546142578125 315.5929870605469 262.516357421875 306.7432556152344 C 243.4262542724609 288.033935546875 223.6862640380859 268.6876831054688 199.1501617431641 268.6876831054688 C 175.1208038330078 268.6876831054688 154.5664520263672 287.8397827148438 134.6888580322266 306.3612976074219 C 125.3580551147461 315.0555419921875 115.7095565795898 324.0458068847656 106.0503082275391 330.6083068847656 C 100.871955871582 334.1264343261719 96.07875823974609 336.7062377929688 91.39680480957031 338.4952087402344 C 86.16745758056641 340.4933471679688 81.20070648193359 341.4646606445313 76.21280670166016 341.4646606445313 Z" stroke="none"/>
      <path d="M 195.9255065917969 1 C 182.6994018554688 1 169.4819030761719 2.3323974609375 156.6401519775391 4.960205078125 C 144.1253051757813 7.521087646484375 131.8152465820313 11.34234619140625 120.052001953125 16.31781005859375 C 108.5021057128906 21.2030029296875 97.36212158203125 27.24960327148438 86.94149780273438 34.28964233398438 C 76.61965942382813 41.262939453125 66.91342163085938 49.2713623046875 58.09234619140625 58.09234619140625 C 49.2713623046875 66.91339111328125 41.26296997070313 76.61965942382813 34.28964233398438 86.94149780273438 C 27.24960327148438 97.36209106445313 21.2030029296875 108.5020904541016 16.31781005859375 120.052001953125 C 11.34234619140625 131.8152465820313 7.5211181640625 144.1253051757813 4.960205078125 156.6401519775391 C 2.3323974609375 169.4819030761719 1 182.6994018554688 1 195.9254913330078 C 1 211.2436981201172 1.931121826171875 225.9264984130859 3.76739501953125 239.5660400390625 C 5.872161865234375 255.1995544433594 9.16705322265625 269.3949584960938 13.56060791015625 281.7579345703125 C 24.0362548828125 311.2352905273438 40.64401245117188 330.3370971679688 62.922607421875 338.5328369140625 C 67.30902099609375 340.1464538574219 71.780517578125 340.9646606445313 76.21279907226563 340.9646606445313 C 81.13861083984375 340.9646606445313 86.0469970703125 340.0040893554688 91.21835327148438 338.0281372070313 C 95.86370849609375 336.2531433105469 100.6233520507813 333.6908569335938 105.7693176269531 330.1947021484375 C 115.3968200683594 323.65380859375 125.031005859375 314.6769104003906 134.3479919433594 305.9954833984375 C 154.2964019775391 287.4079895019531 174.9239501953125 268.1876831054688 199.1501617431641 268.1876831054688 C 223.8917999267578 268.1876831054688 243.7068634033203 287.6063537597656 262.8695678710938 306.3856506347656 C 271.8843078613281 315.2200927734375 280.3991088867188 323.5645446777344 289.3090209960938 329.8909606933594 C 294.064453125 333.2675476074219 298.4779052734375 335.7407836914063 302.801513671875 337.4520568847656 C 307.6064453125 339.3537902832031 312.1927490234375 340.2782592773438 316.8224487304688 340.2782592773438 C 321.080322265625 340.2782592773438 325.4034118652344 339.4554443359375 329.6716613769531 337.8327026367188 C 335.4417724609375 335.6390075683594 340.9071044921875 332.6262817382813 345.9159545898438 328.8783569335938 C 350.6921691894531 325.3043823242188 355.1739196777344 320.9718933105469 359.2366638183594 316.0012512207031 C 366.7843017578125 306.7669067382813 373.1184692382813 295.0720825195313 378.0630493164063 281.2416381835938 C 382.4846496582031 268.8742980957031 385.8195495605469 254.7525939941406 387.9752197265625 239.2687377929688 C 389.8834533691406 225.5618438720703 390.8510131835938 210.9790496826172 390.8510131835938 195.9254913330078 C 390.8510131835938 182.6994018554688 389.5186157226563 169.4819030761719 386.8908081054688 156.6401519775391 C 384.3298950195313 144.1253051757813 380.5086669921875 131.8152465820313 375.533203125 120.052001953125 C 370.6480102539063 108.5020904541016 364.6014099121094 97.36209106445313 357.5613403320313 86.94149780273438 C 350.5880737304688 76.61965942382813 342.5796508789063 66.91339111328125 333.7586669921875 58.09234619140625 C 324.9376220703125 49.2713623046875 315.2313537597656 41.262939453125 304.9095153808594 34.28964233398438 C 294.4888916015625 27.24960327148438 283.3489074707031 21.2030029296875 271.7990112304688 16.31781005859375 C 260.0357666015625 11.34234619140625 247.7257080078125 7.521087646484375 235.2108612060547 4.960205078125 C 222.3691101074219 2.3323974609375 209.151611328125 1 195.9255065917969 1 M 195.9255065917969 0 C 304.1321411132813 0 391.8510131835938 87.71884155273438 391.8510131835938 195.9254913330078 C 391.8510131835938 252.1925964355469 378.2022094726563 320.4519348144531 330.0270080566406 338.7674560546875 C 325.484130859375 340.4945983886719 321.0880432128906 341.2782592773438 316.8224792480469 341.2782592773438 C 275.8537292480469 341.2782592773438 246.1918487548828 269.1876831054688 199.1501617431641 269.1876831054688 C 152.4696044921875 269.1876831054688 119.116455078125 341.9646606445313 76.21279907226563 341.9646606445313 C 71.77767944335938 341.9646606445313 67.24191284179688 341.1873168945313 62.57736206054688 339.4713439941406 C 12.789794921875 321.1557922363281 0 252.6260375976563 0 195.9254913330078 C 0 87.71884155273438 87.71884155273438 0 195.9255065917969 0 Z" stroke="none" fill="#65cde8"/>
    </g>
    <g id="humaaans_standing-2" data-name="humaaans/standing-2" transform="translate(86.508 216.01)">
      <g id="humaaan-8" transform="translate(0 0)">
        <g id="Head_Front_Short-Beard" data-name="Head/Front/Short-Beard" transform="translate(93.175)">
          <g id="Head" transform="translate(1.255 2.007)">
            <path id="Path_31" data-name="Path 31" d="M34.194,34.957c4.67-5.482,7.831-12.2,7.3-19.728C39.976-6.461,9.782-1.69,3.909,9.258S-1.267,47.974,6.324,49.93c3.027.78,9.476-1.131,16.039-5.087l-4.12,29.145H42.569Z" transform="translate(0 0)" fill="#efc8a4" fill-rule="evenodd"/>
          </g>
          <path id="Hair" d="M78.6,49.9q-1.4,19.456-7.389,19.456c-5.993,0-11.077-3.8-13.706-3.8-1.917,0-1.489,2.4-.219,4.177,1.048,1.467,6.153,2.882,6.153,5.156s-4.033.515-4.033,1.864c0,2.232-.709,6.428,3.164,6.428,3.92,0,15.159-1.429,17.085-7.246q1.864-5.632,2.411-23.341a6.086,6.086,0,0,1,6.806,6.038,6.063,6.063,0,0,1-1.832,4.35c1.407,1.986,2.984,4.061,4.791,6.2,6.789-4.073,11.826-16,5.189-27.449-1.835-5.611-5.988-8.608-10.892-10a17.643,17.643,0,0,0-11.579-.853c-6.825.585-12.919,2.667-14.647,3.9,0,6.462,1.252,8.379,11.946,8.21C74.478,44.373,76.5,46.763,78.6,49.9Z" transform="translate(-56.2 -30.265)" fill="#191847" fill-rule="evenodd"/>
        </g>
        <g id="Bottom_Standing_Baggy-Pants" data-name="Bottom/Standing/Baggy-Pants" transform="translate(4.149 159.868)">
          <path id="Leg" d="M236.034,0,186.288,125.909,152.923,232.353H139.748L190.755,0Z" transform="translate(-101.234)" fill="#efc8a4" fill-rule="evenodd"/>
          <path id="Leg-2" data-name="Leg" d="M81.537,0c.53,44.245,8.255,103.814,9.489,106.572q1.235,2.758,85.217,70.146l-9.074,9.711Q68.077,128.651,63.491,120.945C58.906,113.24,43.978,42.328,31.992,0Z" transform="translate(63.281)" fill="#efc8a4" fill-rule="evenodd"/>
          <g id="Accessories_Shoe_Flat-Sneaker" data-name="Accessories/Shoe/Flat-Sneaker" transform="matrix(-0.643, 0.766, -0.766, -0.643, 253.164, 181.684)">
            <path id="shoe" d="M1.7,14.8A21.762,21.762,0,0,1,0,8,50.856,50.856,0,0,1,.913,0H58.079q2.228,7.367-2.573,7.954T47.53,9.015L20.96,20.86a1.013,1.013,0,0,1-1.338-.513l-.011-.026L17.9,16.177A18.227,18.227,0,0,0,10.679,14.1a16.357,16.357,0,0,0-6.236,1.823h0a2.027,2.027,0,0,1-2.687-1Q1.726,14.863,1.7,14.8Z" transform="translate(0 0)" fill="#e4e4e4" fill-rule="evenodd"/>
          </g>
          <g id="Accessories_Shoe_Flat-Sneaker-2" data-name="Accessories/Shoe/Flat-Sneaker" transform="translate(0 221.287)">
            <path id="shoe-2" data-name="shoe" d="M58.127,26.313a21.762,21.762,0,0,1,1.7,6.794,50.857,50.857,0,0,1-.913,8H1.749q-2.228-7.367,2.573-7.954T12.3,32.094l26.57-11.845a1.013,1.013,0,0,1,1.338.513l.011.026,1.708,4.143a18.227,18.227,0,0,0,7.223,2.074,16.357,16.357,0,0,0,6.236-1.823h0a2.027,2.027,0,0,1,2.687,1Q58.1,26.246,58.127,26.313Z" transform="translate(-1.043 -20.161)" fill="#e4e4e4" fill-rule="evenodd"/>
          </g>
          <path id="Pant" d="M195.759,221.39l-62.64-6.8L179.543,0h56.106Z" transform="translate(-94.406 0)" fill="#69a1ac" fill-rule="evenodd"/>
          <path id="Pant-2" data-name="Pant" d="M181.482,161.052l-41.089,48.634q-64.917-70.9-75.693-92.525T45.324,0h63.164q4.7,84.048,6.333,87.959T181.482,161.052Z" transform="translate(45.084)" fill="#89c5cc" fill-rule="evenodd"/>
        </g>
        <g id="Body_Turtle-Neck" data-name="Body/Turtle-Neck" transform="translate(0 48.792)">
          <path id="Skin" d="M73.406,95.692,44.694,123.7a87.038,87.038,0,0,0-20.534,11.8c-1.2,1.447-2.506,4.221,3.139,2.98s11.64-2.293,12.7-.457-2.065,4.649-.1,7.053q1.961,2.4,13.19-15.286l29.856-17.6ZM213.8,70.343l-22.194.083q25.355,82.147,26.919,86.022c2.345,5.813-2.618,14.664-4.74,19.421,6.912,3.092,6.176-8.363,14.9-4.305,7.959,3.7,14.013,10.411,23.209,4.738,1.131-.7,2.369-3.324-.624-5.376-7.457-5.114-18.2-14.063-19.656-17.008Q228.643,147.892,213.8,70.343Z" transform="translate(-23.113 2.815)" fill="#efc8a4" fill-rule="evenodd"/>
          <path id="Clothes-Back" d="M0,112.187l8.6,2.261c18.007-47.414,91.573-74.372,97.5-92.167,2.174-6.526-2.329-10.314.327-12.128L95.806.853c-2.118,2.074-5.86-2.386-14.675-.266S5.037,54.62,0,112.187Z" transform="translate(132.841 121.96) rotate(175)" fill="#191847" fill-rule="evenodd"/>
          <path id="Clothes-Front" d="M71.156,11.754c1.011,64.612-36.34,81.094-28.021,107.014,6.871,21.4,72.63,44.413,84.01,23.432,4.606-8.493,6.7-18.764,6.933-29.932q4.362,12.869,6.9,22.158c2.919,10.683,14.235,12.38,14.235,16.5l14.909-4.116c-1.011-5.591,6.017-8.313,4.133-20.8Q161.589,42.055,106.2,4.3l-.382-5.464a4.054,4.054,0,0,0-4.327-3.761l-27.3,1.909a4.054,4.054,0,0,0-3.761,4.327Z" transform="translate(37.163 4.934)" fill="#2f3676" fill-rule="evenodd"/>
        </g>
      </g>
    </g>
    <g id="Group_3" data-name="Group 3" transform="translate(483.791 325.797) rotate(172)">
      <g id="Group_1" data-name="Group 1" transform="translate(0 0)">
        <g id="Ellipse_10" data-name="Ellipse 10" fill="none" stroke="#5edafb" stroke-width="1">
          <ellipse cx="106.154" cy="106.719" rx="106.154" ry="106.719" stroke="none"/>
          <ellipse cx="106.154" cy="106.719" rx="105.654" ry="106.219" fill="none"/>
        </g>
      </g>
      <g id="Ellipse_9" data-name="Ellipse 9" transform="translate(11.293 5.646)" fill="none" stroke="#5edafb" stroke-width="1">
        <ellipse cx="100.508" cy="101.072" rx="100.508" ry="101.072" stroke="none"/>
        <ellipse cx="100.508" cy="101.072" rx="100.008" ry="100.572" fill="none"/>
      </g>
      <g id="Ellipse_8" data-name="Ellipse 8" transform="translate(25.974 13.552)" fill="none" stroke="#5edafb" stroke-width="1">
        <ellipse cx="93.167" cy="93.167" rx="93.167" ry="93.167" stroke="none"/>
        <ellipse cx="93.167" cy="93.167" rx="92.667" ry="92.667" fill="none"/>
      </g>
      <g id="Ellipse_7" data-name="Ellipse 7" transform="translate(38.396 19.198)" fill="none" stroke="#5edafb" stroke-width="1">
        <ellipse cx="86.956" cy="87.521" rx="86.956" ry="87.521" stroke="none"/>
        <ellipse cx="86.956" cy="87.521" rx="86.456" ry="87.021" fill="none"/>
      </g>
      <g id="Ellipse_6" data-name="Ellipse 6" transform="translate(57.594 29.362)" fill="none" stroke="#5edafb" stroke-width="1">
        <ellipse cx="77.357" cy="77.357" rx="77.357" ry="77.357" stroke="none"/>
        <ellipse cx="77.357" cy="77.357" rx="76.857" ry="76.857" fill="none"/>
      </g>
      <g id="Ellipse_5" data-name="Ellipse 5" transform="translate(77.922 39.525)" fill="none" stroke="#5edafb" stroke-width="1">
        <ellipse cx="67.193" cy="67.193" rx="67.193" ry="67.193" stroke="none"/>
        <ellipse cx="67.193" cy="67.193" rx="66.693" ry="66.693" fill="none"/>
      </g>
      <g id="Ellipse_4" data-name="Ellipse 4" transform="translate(101.637 48.56)" fill="none" stroke="#5edafb" stroke-width="1">
        <ellipse cx="55.336" cy="55.336" rx="55.336" ry="55.336" stroke="none"/>
        <ellipse cx="55.336" cy="55.336" rx="54.836" ry="54.836" fill="none"/>
      </g>
      <g id="Ellipse_3" data-name="Ellipse 3" transform="translate(119.706 57.594)" fill="none" stroke="#5edafb" stroke-width="1">
        <ellipse cx="46.301" cy="46.301" rx="46.301" ry="46.301" stroke="none"/>
        <ellipse cx="46.301" cy="46.301" rx="45.801" ry="45.801" fill="none"/>
      </g>
    </g>
  </g>
</svg>
