<svg xmlns="http://www.w3.org/2000/svg" width="191.872" height="87.937" viewBox="0 0 191.872 87.937">
  <g id="Group_118" data-name="Group 118" transform="translate(-745.024 -490.687)">
    <path id="Path_34" data-name="Path 34" d="M-19.117,172s18.7-19.313,45.29-19.313S51.121,167.172,77.783,172s32.268-19.313,55.822-19.313S172,172,172,172" transform="translate(764.5 405.5)" fill="none" stroke="#7cb3f8" stroke-width="1"/>
    <path id="Path_35" data-name="Path 35" d="M-19.117,172s18.7-19.313,45.29-19.313S51.121,167.172,77.783,172s32.268-19.313,55.822-19.313S172,172,172,172" transform="translate(764.5 388.5)" fill="none" stroke="#7cb3f8" stroke-width="1"/>
    <path id="Path_36" data-name="Path 36" d="M-19.117,172s18.7-19.313,45.29-19.313S51.121,167.172,77.783,172s32.268-19.313,55.822-19.313S172,172,172,172" transform="translate(764.5 372.5)" fill="none" stroke="#7cb3f8" stroke-width="1"/>
    <path id="Path_37" data-name="Path 37" d="M-19.117,172s18.7-19.313,45.29-19.313S51.121,167.172,77.783,172s32.268-19.313,55.822-19.313S172,172,172,172" transform="translate(764.5 355.5)" fill="none" stroke="#7cb3f8" stroke-width="1"/>
    <path id="Path_38" data-name="Path 38" d="M-19.117,172s18.7-19.313,45.29-19.313S51.121,167.172,77.783,172s32.268-19.313,55.822-19.313S172,172,172,172" transform="translate(764.5 338.5)" fill="none" stroke="#7cb3f8" stroke-width="1"/>
  </g>
</svg>
